<?xml version="1.0" encoding="UTF-8"?>
<svg width="390" height="844" viewBox="0 0 390 844" fill="none" xmlns="http://www.w3.org/2000/svg">
  <!-- Background -->
  <rect width="390" height="844" fill="#fefce8"/>
  
  <!-- Status Bar -->
  <rect width="390" height="44" fill="#1e3a8a"/>
  <text x="20" y="30" fill="white" font-family="Inter, sans-serif" font-size="14" font-weight="600">9:41</text>
  <text x="350" y="30" fill="white" font-family="Inter, sans-serif" font-size="14">100%</text>
  
  <!-- Header -->
  <rect x="0" y="44" width="390" height="80" fill="#1e3a8a"/>
  <text x="20" y="95" fill="white" font-family="Inter, sans-serif" font-size="24" font-weight="700">Advent Hymnals</text>
  <text x="20" y="115" fill="#a5b4fc" font-family="Inter, sans-serif" font-size="14">Hymnal Collection</text>
  
  <!-- Environment Indicator (Development) -->
  <rect x="0" y="124" width="390" height="32" fill="#f59e0b"/>
  <circle cx="28" cy="140" r="6" fill="white"/>
  <text x="40" y="145" fill="white" font-family="Inter, sans-serif" font-size="12" font-weight="500">Development: localhost:3000</text>
  
  <!-- Search Bar -->
  <rect x="20" y="176" width="350" height="48" rx="24" fill="white" stroke="#e5e7eb" stroke-width="1"/>
  <circle cx="48" cy="200" r="8" fill="#9ca3af"/>
  <text x="68" y="205" fill="#6b7280" font-family="Inter, sans-serif" font-size="16">Search hymns...</text>
  
  <!-- Quick Actions -->
  <text x="20" y="250" fill="#1e3a8a" font-family="Inter, sans-serif" font-size="18" font-weight="600">Quick Actions</text>
  
  <!-- Quick Action Cards -->
  <rect x="20" y="264" width="165" height="80" rx="12" fill="white" stroke="#e5e7eb" stroke-width="1"/>
  <circle cx="50" cy="294" r="12" fill="#0284c7"/>
  <path d="M46 290 L50 294 L54 290" stroke="white" stroke-width="2" fill="none"/>
  <path d="M46 298 L50 294 L54 298" stroke="white" stroke-width="2" fill="none"/>
  <text x="70" y="295" fill="#1e3a8a" font-family="Inter, sans-serif" font-size="14" font-weight="600">Browse</text>
  <text x="70" y="310" fill="#6b7280" font-family="Inter, sans-serif" font-size="12">All Hymnals</text>
  <text x="70" y="325" fill="#16a34a" font-family="Inter, sans-serif" font-size="12" font-weight="500">12 Available</text>
  
  <rect x="205" y="264" width="165" height="80" rx="12" fill="white" stroke="#e5e7eb" stroke-width="1"/>
  <circle cx="235" cy="294" r="12" fill="#dc2626"/>
  <path d="M229 294 L235 288 L241 294 L235 300 Z" fill="white"/>
  <text x="255" y="295" fill="#1e3a8a" font-family="Inter, sans-serif" font-size="14" font-weight="600">Projection</text>
  <text x="255" y="310" fill="#6b7280" font-family="Inter, sans-serif" font-size="12">Worship Mode</text>
  <text x="255" y="325" fill="#dc2626" font-family="Inter, sans-serif" font-size="12" font-weight="500">Full Screen</text>
  
  <!-- Featured Hymnals -->
  <text x="20" y="370" fill="#1e3a8a" font-family="Inter, sans-serif" font-size="18" font-weight="600">Featured Hymnals</text>
  
  <!-- Hymnal Card 1 -->
  <rect x="20" y="384" width="350" height="100" rx="12" fill="white" stroke="#e5e7eb" stroke-width="1"/>
  <rect x="32" y="396" width="60" height="76" rx="6" fill="#1e3a8a"/>
  <text x="45" y="420" fill="white" font-family="Inter, sans-serif" font-size="10" font-weight="700">SDAH</text>
  <text x="39" y="435" fill="#a5b4fc" font-family="Inter, sans-serif" font-size="8">1985</text>
  <text x="104" y="412" fill="#1e3a8a" font-family="Inter, sans-serif" font-size="16" font-weight="600">Seventh-day Adventist Hymnal</text>
  <text x="104" y="432" fill="#6b7280" font-family="Inter, sans-serif" font-size="14">695 hymns • English</text>
  
  <!-- Media indicators -->
  <rect x="104" y="445" width="45" height="20" rx="10" fill="#eff6ff" stroke="#0284c7" stroke-width="1"/>
  <circle cx="115" cy="455" r="3" fill="#0284c7"/>
  <text x="122" y="459" fill="#0284c7" font-family="Inter, sans-serif" font-size="10">Audio</text>
  
  <rect x="157" y="445" width="40" height="20" rx="10" fill="#f0fdf4" stroke="#16a34a" stroke-width="1"/>
  <circle cx="167" cy="455" r="3" fill="#16a34a"/>
  <text x="174" y="459" fill="#16a34a" font-family="Inter, sans-serif" font-size="10">MIDI</text>
  
  <rect x="310" y="400" width="50" height="24" rx="12" fill="#0284c7"/>
  <text x="325" y="417" fill="white" font-family="Inter, sans-serif" font-size="12" font-weight="500">Open</text>
  
  <!-- Hymnal Card 2 -->
  <rect x="20" y="500" width="350" height="100" rx="12" fill="white" stroke="#e5e7eb" stroke-width="1"/>
  <rect x="32" y="512" width="60" height="76" rx="6" fill="#800020"/>
  <text x="48" y="536" fill="white" font-family="Inter, sans-serif" font-size="10" font-weight="700">CH</text>
  <text x="39" y="551" fill="#fca5a5" font-family="Inter, sans-serif" font-size="8">1941</text>
  <text x="104" y="528" fill="#1e3a8a" font-family="Inter, sans-serif" font-size="16" font-weight="600">Church Hymnal</text>
  <text x="104" y="548" fill="#6b7280" font-family="Inter, sans-serif" font-size="14">623 hymns • English</text>
  
  <!-- Media indicators -->
  <rect x="104" y="561" width="45" height="20" rx="10" fill="#eff6ff" stroke="#0284c7" stroke-width="1"/>
  <circle cx="115" cy="571" r="3" fill="#0284c7"/>
  <text x="122" y="575" fill="#0284c7" font-family="Inter, sans-serif" font-size="10">Audio</text>
  
  <rect x="157" y="561" width="35" height="20" rx="10" fill="#fef3c7" stroke="#f59e0b" stroke-width="1"/>
  <circle cx="167" cy="571" r="3" fill="#f59e0b"/>
  <text x="174" y="575" fill="#f59e0b" font-family="Inter, sans-serif" font-size="10">PDF</text>
  
  <rect x="310" y="516" width="50" height="24" rx="12" fill="#0284c7"/>
  <text x="325" y="533" fill="white" font-family="Inter, sans-serif" font-size="12" font-weight="500">Open</text>
  
  <!-- Recent Activity -->
  <text x="20" y="630" fill="#1e3a8a" font-family="Inter, sans-serif" font-size="18" font-weight="600">Recent Activity</text>
  
  <!-- Activity Item -->
  <rect x="20" y="644" width="350" height="60" rx="8" fill="white" stroke="#e5e7eb" stroke-width="1"/>
  <circle cx="45" cy="674" r="15" fill="#16a34a"/>
  <path d="M40 674 L44 678 L50 668" stroke="white" stroke-width="2" fill="none"/>
  <text x="70" y="670" fill="#1e3a8a" font-family="Inter, sans-serif" font-size="14" font-weight="600">Downloaded 3 audio files</text>
  <text x="70" y="685" fill="#6b7280" font-family="Inter, sans-serif" font-size="12">SDAH #123 - Amazing Grace • 2 min ago</text>
  
  <!-- Bottom Navigation -->
  <rect x="0" y="760" width="390" height="84" fill="white" stroke="#e5e7eb" stroke-width="1"/>
  
  <!-- Home Tab (Active) -->
  <rect x="0" y="760" width="78" height="84" fill="#eff6ff"/>
  <circle cx="39" cy="785" r="12" fill="#0284c7"/>
  <path d="M33 785 L39 779 L45 785 L42 785 L42 791 L36 791 L36 785 Z" fill="white"/>
  <text x="27" y="805" fill="#0284c7" font-family="Inter, sans-serif" font-size="11" font-weight="600">Home</text>
  
  <!-- Browse Tab -->
  <circle cx="117" cy="785" r="12" fill="#9ca3af"/>
  <rect x="111" y="779" width="12" height="2" fill="white"/>
  <rect x="111" y="783" width="12" height="2" fill="white"/>
  <rect x="111" y="787" width="12" height="2" fill="white"/>
  <rect x="111" y="791" width="12" height="2" fill="white"/>
  <text x="105" y="805" fill="#6b7280" font-family="Inter, sans-serif" font-size="11">Browse</text>
  
  <!-- Search Tab -->
  <circle cx="195" cy="785" r="12" fill="#9ca3af"/>
  <circle cx="193" cy="783" r="5" fill="none" stroke="white" stroke-width="2"/>
  <path d="M197 787 L201 791" stroke="white" stroke-width="2"/>
  <text x="185" y="805" fill="#6b7280" font-family="Inter, sans-serif" font-size="11">Search</text>
  
  <!-- Downloads Tab -->
  <circle cx="273" cy="785" r="12" fill="#9ca3af"/>
  <path d="M269 781 L269 789 M269 789 L273 785 M269 789 L277 785" stroke="white" stroke-width="2" fill="none"/>
  <text x="255" y="805" fill="#6b7280" font-family="Inter, sans-serif" font-size="11">Downloads</text>
  
  <!-- Settings Tab -->
  <circle cx="351" cy="785" r="12" fill="#9ca3af"/>
  <circle cx="351" cy="785" r="4" fill="none" stroke="white" stroke-width="2"/>
  <path d="M351 777 L351 779 M351 791 L351 793 M343 785 L345 785 M357 785 L359 785 M345 779 L347 781 M355 789 L357 791 M345 791 L347 789 M355 779 L357 781" stroke="white" stroke-width="1"/>
  <text x="339" y="805" fill="#6b7280" font-family="Inter, sans-serif" font-size="11">Settings</text>
  
  <!-- Download notification badge -->
  <circle cx="285" cy="773" r="8" fill="#dc2626"/>
  <text x="282" y="777" fill="white" font-family="Inter, sans-serif" font-size="10" font-weight="700">3</text>
</svg>