<?xml version="1.0" encoding="UTF-8"?>
<svg width="390" height="844" viewBox="0 0 390 844" fill="none" xmlns="http://www.w3.org/2000/svg">
  <!-- Background -->
  <rect width="390" height="844" fill="#fefce8"/>
  
  <!-- Status Bar -->
  <rect width="390" height="44" fill="#1e3a8a"/>
  <text x="20" y="30" fill="white" font-family="Inter, sans-serif" font-size="14" font-weight="600">9:41</text>
  <text x="350" y="30" fill="white" font-family="Inter, sans-serif" font-size="14">100%</text>
  
  <!-- Header -->
  <rect x="0" y="44" width="390" height="80" fill="#1e3a8a"/>
  <path d="M28 79 L33 84 L28 89" stroke="white" stroke-width="2" fill="none"/>
  <text x="50" y="95" fill="white" font-family="Inter, sans-serif" font-size="20" font-weight="700">Amazing Grace</text>
  <text x="50" y="115" fill="#a5b4fc" font-family="Inter, sans-serif" font-size="14">SDAH #123</text>
  
  <!-- Action Icons -->
  <circle cx="310" cy="84" r="20" fill="rgba(255,255,255,0.1)"/>
  <path d="M306 84 L310 80 L314 84 L310 88 Z" fill="white"/>
  <circle cx="350" cy="84" r="20" fill="rgba(255,255,255,0.1)"/>
  <path d="M346 80 L346 88 M350 80 L350 88 M354 80 L354 88" stroke="white" stroke-width="2"/>
  
  <!-- Media Summary Bar -->
  <rect x="0" y="124" width="390" height="56" fill="#eff6ff" stroke="#0284c7" stroke-width="1"/>
  <circle cx="28" cy="152" r="8" fill="#0284c7"/>
  <text x="28" y="156" fill="white" font-family="Inter, sans-serif" font-size="10" font-weight="700" text-anchor="middle">♪</text>
  <text x="44" y="148" fill="#1e3a8a" font-family="Inter, sans-serif" font-size="14" font-weight="600">Media Files Available</text>
  <text x="44" y="162" fill="#0284c7" font-family="Inter, sans-serif" font-size="12">2 downloaded • 5 total • Audio • MIDI</text>
  
  <rect x="280" y="136" width="80" height="32" rx="16" fill="#0284c7"/>
  <circle cx="295" cy="152" r="6" fill="white"/>
  <path d="M291 152 L295 148 L299 152 L295 156 Z" fill="#0284c7"/>
  <text x="306" y="157" fill="white" font-family="Inter, sans-serif" font-size="12" font-weight="500">Download</text>
  
  <!-- Hymn Info Card -->
  <rect x="20" y="200" width="350" height="120" rx="12" fill="white" stroke="#e5e7eb" stroke-width="1"/>
  <text x="32" y="225" fill="#1e3a8a" font-family="Inter, sans-serif" font-size="24" font-weight="700">Amazing Grace</text>
  <text x="32" y="245" fill="#6b7280" font-family="Inter, sans-serif" font-size="16">Author: John Newton</text>
  <text x="32" y="265" fill="#6b7280" font-family="Inter, sans-serif" font-size="16">Composer: William Walker</text>
  <text x="32" y="285" fill="#6b7280" font-family="Inter, sans-serif" font-size="16">Tune: NEW BRITAIN • 8.6.8.6 (C.M.)</text>
  <text x="32" y="305" fill="#10b981" font-family="Inter, sans-serif" font-size="14" font-weight="500">Grace, Salvation, Redemption</text>
  
  <!-- Hymn Content -->
  <rect x="20" y="340" width="350" height="280" rx="12" fill="white" stroke="#e5e7eb" stroke-width="1"/>
  <text x="32" y="365" fill="#1e3a8a" font-family="Inter, sans-serif" font-size="16" font-weight="600">Verse 1</text>
  <text x="32" y="385" fill="#374151" font-family="Crimson Text, serif" font-size="18" font-weight="400">Amazing grace! How sweet the sound</text>
  <text x="32" y="405" fill="#374151" font-family="Crimson Text, serif" font-size="18" font-weight="400">That saved a wretch like me!</text>
  <text x="32" y="425" fill="#374151" font-family="Crimson Text, serif" font-size="18" font-weight="400">I once was lost, but now am found;</text>
  <text x="32" y="445" fill="#374151" font-family="Crimson Text, serif" font-size="18" font-weight="400">Was blind, but now I see.</text>
  
  <text x="32" y="475" fill="#1e3a8a" font-family="Inter, sans-serif" font-size="16" font-weight="600">Verse 2</text>
  <text x="32" y="495" fill="#374151" font-family="Crimson Text, serif" font-size="18" font-weight="400">'Twas grace that taught my heart to fear,</text>
  <text x="32" y="515" fill="#374151" font-family="Crimson Text, serif" font-size="18" font-weight="400">And grace my fears relieved;</text>
  <text x="32" y="535" fill="#374151" font-family="Crimson Text, serif" font-size="18" font-weight="400">How precious did that grace appear</text>
  <text x="32" y="555" fill="#374151" font-family="Crimson Text, serif" font-size="18" font-weight="400">The hour I first believed!</text>
  
  <!-- Scroll Indicator -->
  <rect x="362" y="580" width="4" height="20" rx="2" fill="#e5e7eb"/>
  <rect x="362" y="580" width="4" height="8" rx="2" fill="#0284c7"/>
  
  <!-- Quick Actions -->
  <rect x="20" y="640" width="350" height="80" rx="12" fill="white" stroke="#e5e7eb" stroke-width="1"/>
  <text x="32" y="665" fill="#1e3a8a" font-family="Inter, sans-serif" font-size="16" font-weight="600">Quick Actions</text>
  
  <!-- Action Chips -->
  <rect x="32" y="680" width="70" height="28" rx="14" fill="#eff6ff" stroke="#0284c7" stroke-width="1"/>
  <circle cx="45" cy="694" r="6" fill="#0284c7"/>
  <text x="45" y="697" fill="white" font-family="Inter, sans-serif" font-size="8" font-weight="700" text-anchor="middle">♪</text>
  <text x="55" y="698" fill="#0284c7" font-family="Inter, sans-serif" font-size="12" font-weight="500">Audio (2)</text>
  
  <rect x="112" y="680" width="60" height="28" rx="14" fill="#f0fdf4" stroke="#16a34a" stroke-width="1"/>
  <circle cx="125" cy="694" r="6" fill="#16a34a"/>
  <text x="125" y="697" fill="white" font-family="Inter, sans-serif" font-size="8" font-weight="700" text-anchor="middle">♫</text>
  <text x="135" y="698" fill="#16a34a" font-family="Inter, sans-serif" font-size="12" font-weight="500">MIDI (1)</text>
  
  <rect x="182" y="680" width="70" height="28" rx="14" fill="#fef3c7" stroke="#f59e0b" stroke-width="1"/>
  <circle cx="195" cy="694" r="6" fill="#f59e0b"/>
  <text x="195" y="697" fill="white" font-family="Inter, sans-serif" font-size="8" font-weight="700" text-anchor="middle">📄</text>
  <text x="205" y="698" fill="#f59e0b" font-family="Inter, sans-serif" font-size="12" font-weight="500">Images (3)</text>
  
  <rect x="262" y="680" width="50" height="28" rx="14" fill="#fef2f2" stroke="#dc2626" stroke-width="1"/>
  <circle cx="275" cy="694" r="6" fill="#dc2626"/>
  <text x="275" y="697" fill="white" font-family="Inter, sans-serif" font-size="8" font-weight="700" text-anchor="middle">📄</text>
  <text x="285" y="698" fill="#dc2626" font-family="Inter, sans-serif" font-size="12" font-weight="500">PDF (1)</text>
  
  <!-- Floating Action Button -->
  <rect x="310" y="680" width="100" height="40" rx="20" fill="#dc2626"/>
  <circle cx="330" cy="700" r="8" fill="white"/>
  <path d="M326 700 L330 696 L334 700 L330 704 Z" fill="#dc2626"/>
  <text x="345" y="705" fill="white" font-family="Inter, sans-serif" font-size="14" font-weight="600">Projection</text>
  
  <!-- Bottom Navigation -->
  <rect x="0" y="760" width="390" height="84" fill="white" stroke="#e5e7eb" stroke-width="1"/>
  
  <!-- Home Tab -->
  <circle cx="39" cy="785" r="12" fill="#9ca3af"/>
  <path d="M33 785 L39 779 L45 785 L42 785 L42 791 L36 791 L36 785 Z" fill="white"/>
  <text x="27" y="805" fill="#6b7280" font-family="Inter, sans-serif" font-size="11">Home</text>
  
  <!-- Browse Tab -->
  <circle cx="117" cy="785" r="12" fill="#9ca3af"/>
  <rect x="111" y="779" width="12" height="2" fill="white"/>
  <rect x="111" y="783" width="12" height="2" fill="white"/>
  <rect x="111" y="787" width="12" height="2" fill="white"/>
  <rect x="111" y="791" width="12" height="2" fill="white"/>
  <text x="105" y="805" fill="#6b7280" font-family="Inter, sans-serif" font-size="11">Browse</text>
  
  <!-- Search Tab -->
  <circle cx="195" cy="785" r="12" fill="#9ca3af"/>
  <circle cx="193" cy="783" r="5" fill="none" stroke="white" stroke-width="2"/>
  <path d="M197 787 L201 791" stroke="white" stroke-width="2"/>
  <text x="185" y="805" fill="#6b7280" font-family="Inter, sans-serif" font-size="11">Search</text>
  
  <!-- Downloads Tab -->
  <circle cx="273" cy="785" r="12" fill="#9ca3af"/>
  <path d="M269 781 L269 789 M269 789 L273 785 M269 789 L277 785" stroke="white" stroke-width="2" fill="none"/>
  <text x="255" y="805" fill="#6b7280" font-family="Inter, sans-serif" font-size="11">Downloads</text>
  
  <!-- Settings Tab -->
  <circle cx="351" cy="785" r="12" fill="#9ca3af"/>
  <circle cx="351" cy="785" r="4" fill="none" stroke="white" stroke-width="2"/>
  <path d="M351 777 L351 779 M351 791 L351 793 M343 785 L345 785 M357 785 L359 785 M345 779 L347 781 M355 789 L357 791 M345 791 L347 789 M355 779 L357 781" stroke="white" stroke-width="1"/>
  <text x="339" y="805" fill="#6b7280" font-family="Inter, sans-serif" font-size="11">Settings</text>
</svg>