<?xml version="1.0" encoding="UTF-8"?>
<svg width="390" height="844" viewBox="0 0 390 844" fill="none" xmlns="http://www.w3.org/2000/svg">
  <!-- Background -->
  <rect width="390" height="844" fill="#fefce8"/>
  
  <!-- Status Bar -->
  <rect width="390" height="44" fill="#1e3a8a"/>
  <text x="20" y="30" fill="white" font-family="Inter, sans-serif" font-size="14" font-weight="600">9:41</text>
  <text x="350" y="30" fill="white" font-family="Inter, sans-serif" font-size="14">100%</text>
  
  <!-- Header -->
  <rect x="0" y="44" width="390" height="80" fill="#1e3a8a"/>
  <text x="20" y="95" fill="white" font-family="Inter, sans-serif" font-size="24" font-weight="700">Browse Hymnals</text>
  <text x="20" y="115" fill="#a5b4fc" font-family="Inter, sans-serif" font-size="14">12 Collections Available</text>
  
  <!-- Filter/Sort Bar -->
  <rect x="0" y="124" width="390" height="56" fill="white" stroke="#e5e7eb" stroke-width="1"/>
  
  <!-- Active filter with background color change -->
  <rect x="20" y="140" width="80" height="32" rx="16" fill="#0284c7"/>
  <text x="35" y="159" fill="white" font-family="Inter, sans-serif" font-size="14" font-weight="600">All</text>
  <circle cx="90" cy="156" r="3" fill="white"/>
  
  <!-- Language filter with counts -->
  <rect x="112" y="140" width="85" height="32" rx="16" fill="white" stroke="#e5e7eb" stroke-width="1"/>
  <text x="125" y="159" fill="#6b7280" font-family="Inter, sans-serif" font-size="14">English (8)</text>
  
  <rect x="209" y="140" width="95" height="32" rx="16" fill="white" stroke="#e5e7eb" stroke-width="1"/>
  <text x="220" y="159" fill="#6b7280" font-family="Inter, sans-serif" font-size="14">Kiswahili (3)</text>
  
  <rect x="316" y="140" width="54" height="32" rx="16" fill="white" stroke="#e5e7eb" stroke-width="1"/>
  <text x="330" y="159" fill="#6b7280" font-family="Inter, sans-serif" font-size="14">Sort</text>
  
  <!-- Hymnal Grid -->
  <!-- Row 1 -->
  <!-- Card 1 with touch feedback -->
  <rect x="20" y="200" width="165" height="140" rx="12" fill="white" stroke="#e5e7eb" stroke-width="1" filter="drop-shadow(0 1px 2px rgba(0, 0, 0, 0.1))"/>
  <rect x="32" y="212" width="141" height="80" rx="6" fill="#1e3a8a"/>
  <text x="85" y="240" fill="white" font-family="Inter, sans-serif" font-size="12" font-weight="700" text-anchor="middle">SDAH</text>
  <text x="85" y="255" fill="#a5b4fc" font-family="Inter, sans-serif" font-size="10" text-anchor="middle">1985</text>
  <text x="85" y="270" fill="#a5b4fc" font-family="Inter, sans-serif" font-size="10" text-anchor="middle">695 hymns</text>
  <text x="32" y="310" fill="#1e3a8a" font-family="Inter, sans-serif" font-size="14" font-weight="600">Seventh-day Adventist</text>
  <text x="32" y="325" fill="#6b7280" font-family="Inter, sans-serif" font-size="12">English • 695 hymns</text>
  
  <!-- Card 2 with touch feedback -->
  <rect x="205" y="200" width="165" height="140" rx="12" fill="white" stroke="#e5e7eb" stroke-width="1" filter="drop-shadow(0 1px 2px rgba(0, 0, 0, 0.1))"/>
  <rect x="217" y="212" width="141" height="80" rx="6" fill="#800020"/>
  <text x="272" y="240" fill="white" font-family="Inter, sans-serif" font-size="12" font-weight="700" text-anchor="middle">CH</text>
  <text x="272" y="255" fill="#fca5a5" font-family="Inter, sans-serif" font-size="10" text-anchor="middle">1941</text>
  <text x="272" y="270" fill="#fca5a5" font-family="Inter, sans-serif" font-size="10" text-anchor="middle">623 hymns</text>
  <text x="217" y="310" fill="#1e3a8a" font-family="Inter, sans-serif" font-size="14" font-weight="600">Church Hymnal</text>
  <text x="217" y="325" fill="#6b7280" font-family="Inter, sans-serif" font-size="12">English • 623 hymns</text>
  
  <!-- Row 2 -->
  <!-- Card 3 with touch feedback -->
  <rect x="20" y="360" width="165" height="140" rx="12" fill="white" stroke="#e5e7eb" stroke-width="1" filter="drop-shadow(0 1px 2px rgba(0, 0, 0, 0.1))"/>
  <rect x="32" y="372" width="141" height="80" rx="6" fill="#16a34a"/>
  <text x="85" y="400" fill="white" font-family="Inter, sans-serif" font-size="12" font-weight="700" text-anchor="middle">CS</text>
  <text x="85" y="415" fill="#bbf7d0" font-family="Inter, sans-serif" font-size="10" text-anchor="middle">1900</text>
  <text x="85" y="430" fill="#bbf7d0" font-family="Inter, sans-serif" font-size="10" text-anchor="middle">742 hymns</text>
  <text x="32" y="470" fill="#1e3a8a" font-family="Inter, sans-serif" font-size="14" font-weight="600">Christ in Song</text>
  <text x="32" y="485" fill="#6b7280" font-family="Inter, sans-serif" font-size="12">English • 742 hymns</text>
  
  <!-- Card 4 with touch feedback -->
  <rect x="205" y="360" width="165" height="140" rx="12" fill="white" stroke="#e5e7eb" stroke-width="1" filter="drop-shadow(0 1px 2px rgba(0, 0, 0, 0.1))"/>
  <rect x="217" y="372" width="141" height="80" rx="6" fill="#d4af37"/>
  <text x="272" y="400" fill="white" font-family="Inter, sans-serif" font-size="12" font-weight="700" text-anchor="middle">MH</text>
  <text x="272" y="415" fill="#fef3c7" font-family="Inter, sans-serif" font-size="10" text-anchor="middle">1843</text>
  <text x="272" y="430" fill="#fef3c7" font-family="Inter, sans-serif" font-size="10" text-anchor="middle">1024 hymns</text>
  <text x="217" y="470" fill="#1e3a8a" font-family="Inter, sans-serif" font-size="14" font-weight="600">Millennial Harp</text>
  <text x="217" y="485" fill="#6b7280" font-family="Inter, sans-serif" font-size="12">English • 1024 hymns</text>
  
  <!-- Row 3 -->
  <!-- Card 5 with touch feedback -->
  <rect x="20" y="520" width="165" height="140" rx="12" fill="white" stroke="#e5e7eb" stroke-width="1" filter="drop-shadow(0 1px 2px rgba(0, 0, 0, 0.1))"/>
  <rect x="32" y="532" width="141" height="80" rx="6" fill="#7c2d12"/>
  <text x="85" y="560" fill="white" font-family="Inter, sans-serif" font-size="12" font-weight="700" text-anchor="middle">NZK</text>
  <text x="85" y="575" fill="#fed7aa" font-family="Inter, sans-serif" font-size="10" text-anchor="middle">2000</text>
  <text x="85" y="590" fill="#fed7aa" font-family="Inter, sans-serif" font-size="10" text-anchor="middle">456 hymns</text>
  <text x="32" y="630" fill="#1e3a8a" font-family="Inter, sans-serif" font-size="14" font-weight="600">Nyimbo za Kristo</text>
  <text x="32" y="645" fill="#6b7280" font-family="Inter, sans-serif" font-size="12">Kiswahili • 456 hymns</text>
  
  <!-- Card 6 with touch feedback -->
  <rect x="205" y="520" width="165" height="140" rx="12" fill="white" stroke="#e5e7eb" stroke-width="1" filter="drop-shadow(0 1px 2px rgba(0, 0, 0, 0.1))"/>
  <rect x="217" y="532" width="141" height="80" rx="6" fill="#0f766e"/>
  <text x="272" y="560" fill="white" font-family="Inter, sans-serif" font-size="12" font-weight="700" text-anchor="middle">WN</text>
  <text x="272" y="575" fill="#a7f3d0" font-family="Inter, sans-serif" font-size="10" text-anchor="middle">2001</text>
  <text x="272" y="590" fill="#a7f3d0" font-family="Inter, sans-serif" font-size="10" text-anchor="middle">389 hymns</text>
  <text x="217" y="630" fill="#1e3a8a" font-family="Inter, sans-serif" font-size="14" font-weight="600">Wende Nyasaye</text>
  <text x="217" y="645" fill="#6b7280" font-family="Inter, sans-serif" font-size="12">Dholuo • 389 hymns</text>
  
  <!-- View All Button -->
  <rect x="20" y="680" width="350" height="48" rx="24" fill="white" stroke="#0284c7" stroke-width="2"/>
  <text x="195" y="709" fill="#0284c7" font-family="Inter, sans-serif" font-size="16" font-weight="600" text-anchor="middle">View All Collections</text>
  
  <!-- Bottom Navigation -->
  <rect x="0" y="760" width="390" height="84" fill="white" stroke="#e5e7eb" stroke-width="1"/>
  
  <!-- Home Tab -->
  <circle cx="39" cy="785" r="12" fill="#9ca3af"/>
  <path d="M33 785 L39 779 L45 785 L42 785 L42 791 L36 791 L36 785 Z" fill="white"/>
  <text x="27" y="805" fill="#6b7280" font-family="Inter, sans-serif" font-size="11">Home</text>
  
  <!-- Browse Tab (Active) -->
  <rect x="78" y="760" width="78" height="84" fill="#eff6ff"/>
  <circle cx="117" cy="785" r="12" fill="#0284c7"/>
  <rect x="111" y="779" width="12" height="2" fill="white"/>
  <rect x="111" y="783" width="12" height="2" fill="white"/>
  <rect x="111" y="787" width="12" height="2" fill="white"/>
  <rect x="111" y="791" width="12" height="2" fill="white"/>
  <text x="105" y="805" fill="#0284c7" font-family="Inter, sans-serif" font-size="11" font-weight="600">Browse</text>
  
  <!-- Search Tab -->
  <circle cx="195" cy="785" r="12" fill="#9ca3af"/>
  <circle cx="193" cy="783" r="5" fill="none" stroke="white" stroke-width="2"/>
  <path d="M197 787 L201 791" stroke="white" stroke-width="2"/>
  <text x="185" y="805" fill="#6b7280" font-family="Inter, sans-serif" font-size="11">Search</text>
  
  <!-- Downloads Tab -->
  <circle cx="273" cy="785" r="12" fill="#9ca3af"/>
  <path d="M269 781 L269 789 M269 789 L273 785 M269 789 L277 785" stroke="white" stroke-width="2" fill="none"/>
  <text x="255" y="805" fill="#6b7280" font-family="Inter, sans-serif" font-size="11">Downloads</text>
  
  <!-- Settings Tab -->
  <circle cx="351" cy="785" r="12" fill="#9ca3af"/>
  <circle cx="351" cy="785" r="4" fill="none" stroke="white" stroke-width="2"/>
  <path d="M351 777 L351 779 M351 791 L351 793 M343 785 L345 785 M357 785 L359 785 M345 779 L347 781 M355 789 L357 791 M345 791 L347 789 M355 779 L357 781" stroke="white" stroke-width="1"/>
  <text x="339" y="805" fill="#6b7280" font-family="Inter, sans-serif" font-size="11">Settings</text>
</svg>