<?xml version="1.0" encoding="UTF-8"?>
<svg width="390" height="844" viewBox="0 0 390 844" fill="none" xmlns="http://www.w3.org/2000/svg">
  <!-- Background -->
  <rect width="390" height="844" fill="#000000" fill-opacity="0.5"/>
  
  <!-- Bottom Sheet -->
  <rect x="0" y="250" width="390" height="594" rx="16" fill="#fefce8"/>
  
  <!-- Handle -->
  <rect x="175" y="260" width="40" height="4" rx="2" fill="#9ca3af"/>
  
  <!-- Header -->
  <circle cx="28" cy="290" r="12" fill="#0284c7"/>
  <path d="M24 290 L28 286 L32 290 L28 294 Z" fill="white"/>
  <text x="50" y="288" fill="#1e3a8a" font-family="Inter, sans-serif" font-size="20" font-weight="700">Download Media</text>
  <text x="50" y="305" fill="#6b7280" font-family="Inter, sans-serif" font-size="14">Amazing Grace - SDAH #123</text>
  
  <!-- Action Menu -->
  <circle cx="350" cy="290" r="16" fill="#f3f4f6"/>
  <circle cx="346" cy="290" r="2" fill="#6b7280"/>
  <circle cx="350" cy="290" r="2" fill="#6b7280"/>
  <circle cx="354" cy="290" r="2" fill="#6b7280"/>
  
  <!-- Stats Bar -->
  <rect x="20" y="320" width="350" height="48" rx="8" fill="#eff6ff" stroke="#0284c7" stroke-width="1"/>
  
  <!-- Stats Items -->
  <rect x="30" y="328" width="60" height="32" rx="6" fill="white" stroke="#16a34a" stroke-width="1"/>
  <circle cx="45" cy="340" r="6" fill="#16a34a"/>
  <path d="M42 340 L45 343 L48 337" stroke="white" stroke-width="2" fill="none"/>
  <text x="55" y="337" fill="#16a34a" font-family="Inter, sans-serif" font-size="10" font-weight="700">2</text>
  <text x="55" y="349" fill="#16a34a" font-family="Inter, sans-serif" font-size="8">Downloaded</text>
  
  <rect x="100" y="328" width="60" height="32" rx="6" fill="white" stroke="#f59e0b" stroke-width="1"/>
  <circle cx="115" cy="340" r="6" fill="#f59e0b"/>
  <path d="M112 337 L115 343 L118 337" stroke="white" stroke-width="2" fill="none"/>
  <text x="125" y="337" fill="#f59e0b" font-family="Inter, sans-serif" font-size="10" font-weight="700">1</text>
  <text x="125" y="349" fill="#f59e0b" font-family="Inter, sans-serif" font-size="8">Active</text>
  
  <rect x="170" y="328" width="60" height="32" rx="6" fill="white" stroke="#0284c7" stroke-width="1"/>
  <circle cx="185" cy="340" r="6" fill="#0284c7"/>
  <path d="M182 337 L185 343 L188 337" stroke="white" stroke-width="2" fill="none"/>
  <text x="195" y="337" fill="#0284c7" font-family="Inter, sans-serif" font-size="10" font-weight="700">3</text>
  <text x="195" y="349" fill="#0284c7" font-family="Inter, sans-serif" font-size="8">Queue</text>
  
  <rect x="240" y="328" width="60" height="32" rx="6" fill="white" stroke="#7c3aed" stroke-width="1"/>
  <circle cx="255" cy="340" r="6" fill="#7c3aed"/>
  <path d="M252 337 L255 343 L258 337" stroke="white" stroke-width="2" fill="none"/>
  <text x="265" y="337" fill="#7c3aed" font-family="Inter, sans-serif" font-size="10" font-weight="700">12MB</text>
  <text x="265" y="349" fill="#7c3aed" font-family="Inter, sans-serif" font-size="8">Storage</text>
  
  <!-- Material 3 Tab Bar -->
  <rect x="0" y="388" width="390" height="50" fill="white" stroke="#e5e7eb" stroke-width="1"/>
  
  <!-- Audio Tab (Active) - Material 3 design -->
  <rect x="0" y="388" width="78" height="50" fill="#0284c7" rx="0"/>
  <rect x="24" y="410" width="30" height="2" fill="white"/>
  <circle cx="39" cy="404" r="8" fill="white"/>
  <text x="39" y="408" fill="#0284c7" font-family="Inter, sans-serif" font-size="10" font-weight="700" text-anchor="middle">♪</text>
  <text x="39" y="429" fill="white" font-family="Inter, sans-serif" font-size="11" font-weight="600" text-anchor="middle">AUDIO</text>
  
  <!-- MIDI Tab - Material 3 design -->
  <rect x="78" y="388" width="78" height="50" fill="#f8fafc"/>
  <circle cx="117" cy="404" r="8" fill="#16a34a"/>
  <text x="117" y="408" fill="white" font-family="Inter, sans-serif" font-size="10" font-weight="700" text-anchor="middle">♫</text>
  <text x="117" y="429" fill="#6b7280" font-family="Inter, sans-serif" font-size="11" text-anchor="middle">MIDI</text>
  
  <!-- Image Tab - Material 3 design -->
  <rect x="156" y="388" width="78" height="50" fill="#f8fafc"/>
  <circle cx="195" cy="404" r="8" fill="#0284c7"/>
  <text x="195" y="408" fill="white" font-family="Inter, sans-serif" font-size="10" font-weight="700" text-anchor="middle">🖼</text>
  <text x="195" y="429" fill="#6b7280" font-family="Inter, sans-serif" font-size="11" text-anchor="middle">IMAGE</text>
  
  <!-- PDF Tab - Material 3 design -->
  <rect x="234" y="388" width="78" height="50" fill="#f8fafc"/>
  <circle cx="273" cy="404" r="8" fill="#dc2626"/>
  <text x="273" y="408" fill="white" font-family="Inter, sans-serif" font-size="10" font-weight="700" text-anchor="middle">📄</text>
  <text x="273" y="429" fill="#6b7280" font-family="Inter, sans-serif" font-size="11" text-anchor="middle">PDF</text>
  
  <!-- Video Tab - Material 3 design -->
  <rect x="312" y="388" width="78" height="50" fill="#f8fafc"/>
  <circle cx="351" cy="404" r="8" fill="#f59e0b"/>
  <text x="351" y="408" fill="white" font-family="Inter, sans-serif" font-size="10" font-weight="700" text-anchor="middle">📹</text>
  <text x="351" y="429" fill="#6b7280" font-family="Inter, sans-serif" font-size="11" text-anchor="middle">VIDEO</text>
  
  <!-- Audio Files List -->
  <!-- File 1 (Downloaded) -->
  <rect x="20" y="458" width="350" height="80" rx="8" fill="white" stroke="#e5e7eb" stroke-width="1"/>
  <circle cx="50" cy="488" r="15" fill="#0284c7"/>
  <text x="50" y="493" fill="white" font-family="Inter, sans-serif" font-size="12" font-weight="700" text-anchor="middle">♪</text>
  <text x="75" y="481" fill="#1e3a8a" font-family="Inter, sans-serif" font-size="16" font-weight="600">Amazing Grace - High Quality</text>
  <text x="75" y="499" fill="#6b7280" font-family="Inter, sans-serif" font-size="14">MP3 • 3.2MB</text>
  <text x="75" y="517" fill="#6b7280" font-family="Inter, sans-serif" font-size="12">Duration: 4:32</text>
  
  <!-- Downloaded indicator -->
  <circle cx="315" cy="488" r="12" fill="#16a34a"/>
  <path d="M311 488 L314 491 L319 481" stroke="white" stroke-width="2" fill="none"/>
  <rect x="337" y="478" width="24" height="20" rx="10" fill="#f0f9ff"/>
  <text x="346" y="491" fill="#0284c7" font-family="Inter, sans-serif" font-size="10" font-weight="500">•••</text>
  
  <!-- File 2 (Downloading) -->
  <rect x="20" y="554" width="350" height="80" rx="8" fill="white" stroke="#e5e7eb" stroke-width="1"/>
  <circle cx="50" cy="584" r="15" fill="#0284c7"/>
  <text x="50" y="589" fill="white" font-family="Inter, sans-serif" font-size="12" font-weight="700" text-anchor="middle">♪</text>
  <text x="75" y="577" fill="#1e3a8a" font-family="Inter, sans-serif" font-size="16" font-weight="600">Amazing Grace - Standard Quality</text>
  <text x="75" y="595" fill="#6b7280" font-family="Inter, sans-serif" font-size="14">MP3 • 1.8MB</text>
  
  <!-- Progress Bar with download speed and time -->
  <rect x="75" y="607" width="160" height="4" rx="2" fill="#e5e7eb"/>
  <rect x="75" y="607" width="100" height="4" rx="2" fill="#16a34a"/>
  <text x="75" y="623" fill="#16a34a" font-family="Inter, sans-serif" font-size="12" font-weight="500">62% • 180 KB/s • 45s left</text>
  
  <!-- Improved control buttons -->
  <rect x="280" y="574" width="28" height="20" rx="10" fill="#f59e0b"/>
  <path d="M288 580 L288 588 M292 580 L292 588" stroke="white" stroke-width="2"/>
  <rect x="316" y="574" width="28" height="20" rx="10" fill="#dc2626"/>
  <path d="M324 580 L324 588 M324 584 L332 584" stroke="white" stroke-width="2"/>
  
  <!-- File 3 (Available) -->
  <rect x="20" y="650" width="350" height="80" rx="8" fill="white" stroke="#e5e7eb" stroke-width="1"/>
  <circle cx="50" cy="680" r="15" fill="#0284c7"/>
  <text x="50" y="685" fill="white" font-family="Inter, sans-serif" font-size="12" font-weight="700" text-anchor="middle">♪</text>
  <text x="75" y="673" fill="#1e3a8a" font-family="Inter, sans-serif" font-size="16" font-weight="600">Amazing Grace - Instrumental</text>
  <text x="75" y="691" fill="#6b7280" font-family="Inter, sans-serif" font-size="14">MP3 • 2.1MB</text>
  <text x="75" y="709" fill="#6b7280" font-family="Inter, sans-serif" font-size="12">Duration: 3:45</text>
  
  <!-- Enhanced download button -->
  <rect x="275" y="670" width="80" height="32" rx="16" fill="#0284c7"/>
  <circle cx="295" cy="686" r="6" fill="white"/>
  <path d="M291 686 L295 682 L299 686 L295 690 Z" fill="#0284c7"/>
  <text x="308" y="690" fill="white" font-family="Inter, sans-serif" font-size="12" font-weight="500">Download</text>
  
  <!-- Enhanced scroll indicator -->
  <rect x="370" y="500" width="6" height="150" rx="3" fill="#e5e7eb"/>
  <rect x="370" y="500" width="6" height="60" rx="3" fill="#0284c7"/>
  
  <!-- Footer Actions -->
  <rect x="0" y="748" width="390" height="96" fill="white" stroke="#e5e7eb" stroke-width="1"/>
  <rect x="20" y="768" width="165" height="40" rx="20" fill="white" stroke="#dc2626" stroke-width="1"/>
  <text x="85" y="791" fill="#dc2626" font-family="Inter, sans-serif" font-size="14" font-weight="500" text-anchor="middle">Clear All</text>
  
  <rect x="205" y="768" width="165" height="40" rx="20" fill="#0284c7"/>
  <text x="270" y="791" fill="white" font-family="Inter, sans-serif" font-size="14" font-weight="500" text-anchor="middle">Download All Audio</text>
  
  <!-- Handle indicator for swipe -->
  <rect x="175" y="820" width="40" height="4" rx="2" fill="#9ca3af"/>
</svg>