<?xml version="1.0" encoding="UTF-8"?>
<svg width="390" height="844" viewBox="0 0 390 844" fill="none" xmlns="http://www.w3.org/2000/svg">
  <!-- Background -->
  <rect width="390" height="844" fill="#fefce8"/>
  
  <!-- Status Bar -->
  <rect width="390" height="44" fill="#1e3a8a"/>
  <text x="20" y="30" fill="white" font-family="Inter, sans-serif" font-size="14" font-weight="600">9:41</text>
  <text x="350" y="30" fill="white" font-family="Inter, sans-serif" font-size="14">100%</text>
  
  <!-- Header -->
  <rect x="0" y="44" width="390" height="80" fill="#1e3a8a"/>
  <path d="M28 79 L33 84 L28 89" stroke="white" stroke-width="2" fill="none"/>
  <text x="50" y="95" fill="white" font-family="Inter, sans-serif" font-size="24" font-weight="700">Topics</text>
  <text x="50" y="115" fill="#a5b4fc" font-family="Inter, sans-serif" font-size="14">Browse by themes &amp; subjects</text>
  
  <!-- Search Icon -->
  <circle cx="350" cy="84" r="20" fill="rgba(255,255,255,0.1)"/>
  <circle cx="347" cy="81" r="7" fill="none" stroke="white" stroke-width="2"/>
  <path d="M352 86 L356 90" stroke="white" stroke-width="2"/>
  
  <!-- Category Filters -->
  <rect x="0" y="124" width="390" height="60" fill="white" stroke="#e5e7eb" stroke-width="1"/>
  <text x="20" y="142" fill="#1e3a8a" font-family="Inter, sans-serif" font-size="14" font-weight="600">Categories:</text>
  
  <!-- Filter Chips -->
  <rect x="20" y="152" width="60" height="24" rx="12" fill="#eff6ff" stroke="#0284c7" stroke-width="1"/>
  <text x="50" y="167" fill="#0284c7" font-family="Inter, sans-serif" font-size="12" font-weight="500" text-anchor="middle">All (89)</text>
  
  <rect x="90" y="152" width="70" height="24" rx="12" fill="white" stroke="#e5e7eb" stroke-width="1"/>
  <text x="125" y="167" fill="#6b7280" font-family="Inter, sans-serif" font-size="12" text-anchor="middle">Worship (34)</text>
  
  <rect x="170" y="152" width="65" height="24" rx="12" fill="white" stroke="#e5e7eb" stroke-width="1"/>
  <text x="202" y="167" fill="#6b7280" font-family="Inter, sans-serif" font-size="12" text-anchor="middle">Grace (18)</text>
  
  <rect x="245" y="152" width="75" height="24" rx="12" fill="white" stroke="#e5e7eb" stroke-width="1"/>
  <text x="282" y="167" fill="#6b7280" font-family="Inter, sans-serif" font-size="12" text-anchor="middle">Seasonal (21)</text>
  
  <rect x="330" y="152" width="50" height="24" rx="12" fill="white" stroke="#e5e7eb" stroke-width="1"/>
  <text x="355" y="167" fill="#6b7280" font-family="Inter, sans-serif" font-size="12" text-anchor="middle">More</text>
  
  <!-- Featured Topics Section -->
  <text x="20" y="210" fill="#1e3a8a" font-family="Inter, sans-serif" font-size="18" font-weight="600">Featured Topics</text>
  
  <!-- Featured Topic Cards -->
  <rect x="20" y="224" width="165" height="120" rx="12" fill="white" stroke="#e5e7eb" stroke-width="1"/>
  <rect x="32" y="236" width="141" height="60" rx="8" fill="#16a34a"/>
  <text x="102" y="270" fill="white" font-family="Inter, sans-serif" font-size="20" font-weight="700" text-anchor="middle">Grace</text>
  <text x="32" y="315" fill="#1e3a8a" font-family="Inter, sans-serif" font-size="16" font-weight="600">Grace &amp; Mercy</text>
  <text x="32" y="330" fill="#6b7280" font-family="Inter, sans-serif" font-size="12">18 hymns • Popular theme</text>
  
  <rect x="205" y="224" width="165" height="120" rx="12" fill="white" stroke="#e5e7eb" stroke-width="1"/>
  <rect x="217" y="236" width="141" height="60" rx="8" fill="#dc2626"/>
  <text x="287" y="270" fill="white" font-family="Inter, sans-serif" font-size="18" font-weight="700" text-anchor="middle">Salvation</text>
  <text x="217" y="315" fill="#1e3a8a" font-family="Inter, sans-serif" font-size="16" font-weight="600">Salvation &amp; Redemption</text>
  <text x="217" y="330" fill="#6b7280" font-family="Inter, sans-serif" font-size="12">24 hymns • Essential theme</text>
  
  <!-- All Topics List -->
  <text x="20" y="374" fill="#1e3a8a" font-family="Inter, sans-serif" font-size="18" font-weight="600">All Topics</text>
  <text x="320" y="374" fill="#0284c7" font-family="Inter, sans-serif" font-size="14" font-weight="500">Sort A-Z</text>
  
  <!-- Topic Items -->
  <!-- Topic 1 -->
  <rect x="20" y="388" width="350" height="56" rx="8" fill="white" stroke="#e5e7eb" stroke-width="1"/>
  <circle cx="50" cy="413" r="16" fill="#f59e0b"/>
  <text x="50" y="418" fill="white" font-family="Inter, sans-serif" font-size="12" font-weight="700" text-anchor="middle">🎄</text>
  <text x="78" y="410" fill="#1e3a8a" font-family="Inter, sans-serif" font-size="16" font-weight="600">Christmas</text>
  <text x="78" y="426" fill="#6b7280" font-family="Inter, sans-serif" font-size="14">Nativity, celebration • 15 hymns</text>
  <circle cx="330" cy="413" r="8" fill="#16a34a"/>
  <text x="330" y="417" fill="white" font-family="Inter, sans-serif" font-size="10" font-weight="700" text-anchor="middle">15</text>
  <path d="M350 408 L355 413 L350 418" stroke="#9ca3af" stroke-width="2" fill="none"/>
  
  <!-- Topic 2 -->
  <rect x="20" y="456" width="350" height="56" rx="8" fill="white" stroke="#e5e7eb" stroke-width="1"/>
  <circle cx="50" cy="481" r="16" fill="#7c3aed"/>
  <text x="50" y="486" fill="white" font-family="Inter, sans-serif" font-size="12" font-weight="700" text-anchor="middle">🕊️</text>
  <text x="78" y="478" fill="#1e3a8a" font-family="Inter, sans-serif" font-size="16" font-weight="600">Peace</text>
  <text x="78" y="494" fill="#6b7280" font-family="Inter, sans-serif" font-size="14">Comfort, tranquility • 12 hymns</text>
  <circle cx="330" cy="481" r="8" fill="#16a34a"/>
  <text x="330" y="485" fill="white" font-family="Inter, sans-serif" font-size="10" font-weight="700" text-anchor="middle">12</text>
  <path d="M350 476 L355 481 L350 486" stroke="#9ca3af" stroke-width="2" fill="none"/>
  
  <!-- Topic 3 -->
  <rect x="20" y="524" width="350" height="56" rx="8" fill="white" stroke="#e5e7eb" stroke-width="1"/>
  <circle cx="50" cy="549" r="16" fill="#0284c7"/>
  <text x="50" y="554" fill="white" font-family="Inter, sans-serif" font-size="12" font-weight="700" text-anchor="middle">🙏</text>
  <text x="78" y="546" fill="#1e3a8a" font-family="Inter, sans-serif" font-size="16" font-weight="600">Prayer</text>
  <text x="78" y="562" fill="#6b7280" font-family="Inter, sans-serif" font-size="14">Communion, supplication • 8 hymns</text>
  <circle cx="330" cy="549" r="8" fill="#16a34a"/>
  <text x="330" y="553" fill="white" font-family="Inter, sans-serif" font-size="10" font-weight="700" text-anchor="middle">8</text>
  <path d="M350 544 L355 549 L350 554" stroke="#9ca3af" stroke-width="2" fill="none"/>
  
  <!-- Topic 4 -->
  <rect x="20" y="592" width="350" height="56" rx="8" fill="white" stroke="#e5e7eb" stroke-width="1"/>
  <circle cx="50" cy="617" r="16" fill="#16a34a"/>
  <text x="50" y="622" fill="white" font-family="Inter, sans-serif" font-size="12" font-weight="700" text-anchor="middle">✝️</text>
  <text x="78" y="614" fill="#1e3a8a" font-family="Inter, sans-serif" font-size="16" font-weight="600">Resurrection</text>
  <text x="78" y="630" fill="#6b7280" font-family="Inter, sans-serif" font-size="14">Easter, victory • 14 hymns</text>
  <circle cx="330" cy="617" r="8" fill="#16a34a"/>
  <text x="330" y="621" fill="white" font-family="Inter, sans-serif" font-size="10" font-weight="700" text-anchor="middle">14</text>
  <path d="M350 612 L355 617 L350 622" stroke="#9ca3af" stroke-width="2" fill="none"/>
  
  <!-- Topic 5 -->
  <rect x="20" y="660" width="350" height="56" rx="8" fill="white" stroke="#e5e7eb" stroke-width="1"/>
  <circle cx="50" cy="685" r="16" fill="#dc2626"/>
  <text x="50" y="690" fill="white" font-family="Inter, sans-serif" font-size="12" font-weight="700" text-anchor="middle">❤️</text>
  <text x="78" y="682" fill="#1e3a8a" font-family="Inter, sans-serif" font-size="16" font-weight="600">Love</text>
  <text x="78" y="698" fill="#6b7280" font-family="Inter, sans-serif" font-size="14">Divine love, compassion • 19 hymns</text>
  <circle cx="330" cy="685" r="8" fill="#16a34a"/>
  <text x="330" y="689" fill="white" font-family="Inter, sans-serif" font-size="10" font-weight="700" text-anchor="middle">19</text>
  <path d="M350 680 L355 685 L350 690" stroke="#9ca3af" stroke-width="2" fill="none"/>
  
  <!-- Scroll Indicator -->
  <rect x="370" y="400" width="4" height="250" rx="2" fill="#e5e7eb"/>
  <rect x="370" y="400" width="4" height="100" rx="2" fill="#0284c7"/>
  
  <!-- Bottom Navigation -->
  <rect x="0" y="760" width="390" height="84" fill="white" stroke="#e5e7eb" stroke-width="1"/>
  
  <!-- Home Tab -->
  <circle cx="39" cy="785" r="12" fill="#9ca3af"/>
  <path d="M33 785 L39 779 L45 785 L42 785 L42 791 L36 791 L36 785 Z" fill="white"/>
  <text x="27" y="805" fill="#6b7280" font-family="Inter, sans-serif" font-size="11">Home</text>
  
  <!-- Browse Tab (Active) -->
  <rect x="78" y="760" width="78" height="84" fill="#eff6ff"/>
  <circle cx="117" cy="785" r="12" fill="#0284c7"/>
  <rect x="111" y="779" width="12" height="2" fill="white"/>
  <rect x="111" y="783" width="12" height="2" fill="white"/>
  <rect x="111" y="787" width="12" height="2" fill="white"/>
  <rect x="111" y="791" width="12" height="2" fill="white"/>
  <text x="103" y="805" fill="#0284c7" font-family="Inter, sans-serif" font-size="11" font-weight="600">Browse</text>
  
  <!-- Search Tab -->
  <circle cx="195" cy="785" r="12" fill="#9ca3af"/>
  <circle cx="193" cy="783" r="5" fill="none" stroke="white" stroke-width="2"/>
  <path d="M197 787 L201 791" stroke="white" stroke-width="2"/>
  <text x="185" y="805" fill="#6b7280" font-family="Inter, sans-serif" font-size="11">Search</text>
  
  <!-- Downloads Tab -->
  <circle cx="273" cy="785" r="12" fill="#9ca3af"/>
  <path d="M269 781 L269 789 M269 789 L273 785 M269 789 L277 785" stroke="white" stroke-width="2" fill="none"/>
  <text x="255" y="805" fill="#6b7280" font-family="Inter, sans-serif" font-size="11">Downloads</text>
  
  <!-- Settings Tab -->
  <circle cx="351" cy="785" r="12" fill="#9ca3af"/>
  <circle cx="351" cy="785" r="4" fill="none" stroke="white" stroke-width="2"/>
  <path d="M351 777 L351 779 M351 791 L351 793 M343 785 L345 785 M357 785 L359 785 M345 779 L347 781 M355 789 L357 791 M345 791 L347 789 M355 779 L357 781" stroke="white" stroke-width="1"/>
  <text x="339" y="805" fill="#6b7280" font-family="Inter, sans-serif" font-size="11">Settings</text>
</svg>