<?xml version="1.0" encoding="UTF-8"?>
<svg width="390" height="844" viewBox="0 0 390 844" fill="none" xmlns="http://www.w3.org/2000/svg">
  <!-- Background -->
  <rect width="390" height="844" fill="#fefce8"/>
  
  <!-- Status Bar -->
  <rect width="390" height="44" fill="#1e3a8a"/>
  <text x="20" y="30" fill="white" font-family="Inter, sans-serif" font-size="14" font-weight="600">9:41</text>
  <text x="350" y="30" fill="white" font-family="Inter, sans-serif" font-size="14">100%</text>
  
  <!-- Header -->
  <rect x="0" y="44" width="390" height="80" fill="#1e3a8a"/>
  <path d="M28 79 L33 84 L28 89" stroke="white" stroke-width="2" fill="none"/>
  <text x="50" y="95" fill="white" font-family="Inter, sans-serif" font-size="24" font-weight="700">Meters</text>
  <text x="50" y="115" fill="#a5b4fc" font-family="Inter, sans-serif" font-size="14">Browse by metrical patterns</text>
  
  <!-- Search Icon -->
  <circle cx="350" cy="84" r="20" fill="rgba(255,255,255,0.1)"/>
  <circle cx="347" cy="81" r="7" fill="none" stroke="white" stroke-width="2"/>
  <path d="M352 86 L356 90" stroke="white" stroke-width="2"/>
  
  <!-- Info Bar -->
  <rect x="0" y="124" width="390" height="48" fill="#eff6ff" stroke="#0284c7" stroke-width="1"/>
  <circle cx="28" cy="148" r="8" fill="#0284c7"/>
  <text x="28" y="152" fill="white" font-family="Inter, sans-serif" font-size="10" font-weight="700" text-anchor="middle">i</text>
  <text x="44" y="145" fill="#1e3a8a" font-family="Inter, sans-serif" font-size="14" font-weight="600">Metrical Pattern Guide</text>
  <text x="44" y="158" fill="#0284c7" font-family="Inter, sans-serif" font-size="12">Numbers show syllables per line (e.g., 8.6.8.6)</text>
  
  <!-- Popular Meters Section -->
  <text x="20" y="194" fill="#1e3a8a" font-family="Inter, sans-serif" font-size="18" font-weight="600">Common Meters</text>
  
  <!-- Common Meter Cards -->
  <rect x="20" y="208" width="165" height="100" rx="12" fill="white" stroke="#e5e7eb" stroke-width="1"/>
  <rect x="32" y="220" width="141" height="40" rx="8" fill="#16a34a"/>
  <text x="102" y="244" fill="white" font-family="Inter, sans-serif" font-size="18" font-weight="700" text-anchor="middle">8.6.8.6</text>
  <text x="32" y="275" fill="#1e3a8a" font-family="Inter, sans-serif" font-size="14" font-weight="600">Common Meter (C.M.)</text>
  <text x="32" y="290" fill="#6b7280" font-family="Inter, sans-serif" font-size="12">28 hymns available</text>
  
  <rect x="205" y="208" width="165" height="100" rx="12" fill="white" stroke="#e5e7eb" stroke-width="1"/>
  <rect x="217" y="220" width="141" height="40" rx="8" fill="#0284c7"/>
  <text x="287" y="244" fill="white" font-family="Inter, sans-serif" font-size="18" font-weight="700" text-anchor="middle">8.8.8.8</text>
  <text x="217" y="275" fill="#1e3a8a" font-family="Inter, sans-serif" font-size="14" font-weight="600">Long Meter (L.M.)</text>
  <text x="217" y="290" fill="#6b7280" font-family="Inter, sans-serif" font-size="12">22 hymns available</text>
  
  <!-- All Meters List -->
  <text x="20" y="338" fill="#1e3a8a" font-family="Inter, sans-serif" font-size="18" font-weight="600">All Meters</text>
  <text x="290" y="338" fill="#0284c7" font-family="Inter, sans-serif" font-size="14" font-weight="500">Sort by Usage</text>
  
  <!-- Meter Items -->
  <!-- Meter 1 -->
  <rect x="20" y="352" width="350" height="64" rx="8" fill="white" stroke="#e5e7eb" stroke-width="1"/>
  <rect x="32" y="364" width="80" height="32" rx="6" fill="#f59e0b"/>
  <text x="72" y="384" fill="white" font-family="Inter, sans-serif" font-size="14" font-weight="700" text-anchor="middle">8.7.8.7</text>
  <text x="124" y="375" fill="#1e3a8a" font-family="Inter, sans-serif" font-size="16" font-weight="600">8.7.8.7 Trochaic</text>
  <text x="124" y="391" fill="#6b7280" font-family="Inter, sans-serif" font-size="14">Common in traditional hymns</text>
  <text x="124" y="404" fill="#16a34a" font-family="Inter, sans-serif" font-size="12" font-weight="500">15 hymns</text>
  <circle cx="320" cy="380" r="12" fill="#16a34a"/>
  <text x="320" y="385" fill="white" font-family="Inter, sans-serif" font-size="10" font-weight="700" text-anchor="middle">15</text>
  <path d="M345 375 L350 380 L345 385" stroke="#9ca3af" stroke-width="2" fill="none"/>
  
  <!-- Meter 2 -->
  <rect x="20" y="428" width="350" height="64" rx="8" fill="white" stroke="#e5e7eb" stroke-width="1"/>
  <rect x="32" y="440" width="80" height="32" rx="6" fill="#7c3aed"/>
  <text x="72" y="460" fill="white" font-family="Inter, sans-serif" font-size="14" font-weight="700" text-anchor="middle">7.6.7.6 D</text>
  <text x="124" y="451" fill="#1e3a8a" font-family="Inter, sans-serif" font-size="16" font-weight="600">7.6.7.6 Doubled</text>
  <text x="124" y="467" fill="#6b7280" font-family="Inter, sans-serif" font-size="14">Four-line stanzas doubled</text>
  <text x="124" y="480" fill="#16a34a" font-family="Inter, sans-serif" font-size="12" font-weight="500">12 hymns</text>
  <circle cx="320" cy="456" r="12" fill="#16a34a"/>
  <text x="320" y="461" fill="white" font-family="Inter, sans-serif" font-size="10" font-weight="700" text-anchor="middle">12</text>
  <path d="M345 451 L350 456 L345 461" stroke="#9ca3af" stroke-width="2" fill="none"/>
  
  <!-- Meter 3 -->
  <rect x="20" y="504" width="350" height="64" rx="8" fill="white" stroke="#e5e7eb" stroke-width="1"/>
  <rect x="32" y="516" width="80" height="32" rx="6" fill="#dc2626"/>
  <text x="72" y="536" fill="white" font-family="Inter, sans-serif" font-size="12" font-weight="700" text-anchor="middle">10.10.10.10</text>
  <text x="124" y="527" fill="#1e3a8a" font-family="Inter, sans-serif" font-size="16" font-weight="600">10.10.10.10</text>
  <text x="124" y="543" fill="#6b7280" font-family="Inter, sans-serif" font-size="14">Decasyllabic quatrain</text>
  <text x="124" y="556" fill="#16a34a" font-family="Inter, sans-serif" font-size="12" font-weight="500">8 hymns</text>
  <circle cx="320" cy="532" r="12" fill="#16a34a"/>
  <text x="320" y="537" fill="white" font-family="Inter, sans-serif" font-size="10" font-weight="700" text-anchor="middle">8</text>
  <path d="M345 527 L350 532 L345 537" stroke="#9ca3af" stroke-width="2" fill="none"/>
  
  <!-- Meter 4 -->
  <rect x="20" y="580" width="350" height="64" rx="8" fill="white" stroke="#e5e7eb" stroke-width="1"/>
  <rect x="32" y="592" width="80" height="32" rx="6" fill="#0284c7"/>
  <text x="72" y="612" fill="white" font-family="Inter, sans-serif" font-size="12" font-weight="700" text-anchor="middle">11.11.11.11</text>
  <text x="124" y="603" fill="#1e3a8a" font-family="Inter, sans-serif" font-size="16" font-weight="600">11.11.11.11</text>
  <text x="124" y="619" fill="#6b7280" font-family="Inter, sans-serif" font-size="14">Hendecasyllabic</text>
  <text x="124" y="632" fill="#16a34a" font-family="Inter, sans-serif" font-size="12" font-weight="500">6 hymns</text>
  <circle cx="320" cy="608" r="12" fill="#16a34a"/>
  <text x="320" y="613" fill="white" font-family="Inter, sans-serif" font-size="10" font-weight="700" text-anchor="middle">6</text>
  <path d="M345 603 L350 608 L345 613" stroke="#9ca3af" stroke-width="2" fill="none"/>
  
  <!-- Meter 5 -->
  <rect x="20" y="656" width="350" height="64" rx="8" fill="white" stroke="#e5e7eb" stroke-width="1"/>
  <rect x="32" y="668" width="80" height="32" rx="6" fill="#16a34a"/>
  <text x="72" y="688" fill="white" font-family="Inter, sans-serif" font-size="14" font-weight="700" text-anchor="middle">Irregular</text>
  <text x="124" y="679" fill="#1e3a8a" font-family="Inter, sans-serif" font-size="16" font-weight="600">Irregular Meters</text>
  <text x="124" y="695" fill="#6b7280" font-family="Inter, sans-serif" font-size="14">Various unique patterns</text>
  <text x="124" y="708" fill="#16a34a" font-family="Inter, sans-serif" font-size="12" font-weight="500">34 hymns</text>
  <circle cx="320" cy="684" r="12" fill="#16a34a"/>
  <text x="320" y="689" fill="white" font-family="Inter, sans-serif" font-size="10" font-weight="700" text-anchor="middle">34</text>
  <path d="M345 679 L350 684 L345 689" stroke="#9ca3af" stroke-width="2" fill="none"/>
  
  <!-- Scroll Indicator -->
  <rect x="370" y="400" width="4" height="250" rx="2" fill="#e5e7eb"/>
  <rect x="370" y="400" width="4" height="120" rx="2" fill="#0284c7"/>
  
  <!-- Bottom Navigation -->
  <rect x="0" y="760" width="390" height="84" fill="white" stroke="#e5e7eb" stroke-width="1"/>
  
  <!-- Home Tab -->
  <circle cx="39" cy="785" r="12" fill="#9ca3af"/>
  <path d="M33 785 L39 779 L45 785 L42 785 L42 791 L36 791 L36 785 Z" fill="white"/>
  <text x="27" y="805" fill="#6b7280" font-family="Inter, sans-serif" font-size="11">Home</text>
  
  <!-- Browse Tab (Active) -->
  <rect x="78" y="760" width="78" height="84" fill="#eff6ff"/>
  <circle cx="117" cy="785" r="12" fill="#0284c7"/>
  <rect x="111" y="779" width="12" height="2" fill="white"/>
  <rect x="111" y="783" width="12" height="2" fill="white"/>
  <rect x="111" y="787" width="12" height="2" fill="white"/>
  <rect x="111" y="791" width="12" height="2" fill="white"/>
  <text x="103" y="805" fill="#0284c7" font-family="Inter, sans-serif" font-size="11" font-weight="600">Browse</text>
  
  <!-- Search Tab -->
  <circle cx="195" cy="785" r="12" fill="#9ca3af"/>
  <circle cx="193" cy="783" r="5" fill="none" stroke="white" stroke-width="2"/>
  <path d="M197 787 L201 791" stroke="white" stroke-width="2"/>
  <text x="185" y="805" fill="#6b7280" font-family="Inter, sans-serif" font-size="11">Search</text>
  
  <!-- Downloads Tab -->
  <circle cx="273" cy="785" r="12" fill="#9ca3af"/>
  <path d="M269 781 L269 789 M269 789 L273 785 M269 789 L277 785" stroke="white" stroke-width="2" fill="none"/>
  <text x="255" y="805" fill="#6b7280" font-family="Inter, sans-serif" font-size="11">Downloads</text>
  
  <!-- Settings Tab -->
  <circle cx="351" cy="785" r="12" fill="#9ca3af"/>
  <circle cx="351" cy="785" r="4" fill="none" stroke="white" stroke-width="2"/>
  <path d="M351 777 L351 779 M351 791 L351 793 M343 785 L345 785 M357 785 L359 785 M345 779 L347 781 M355 789 L357 791 M345 791 L347 789 M355 779 L357 781" stroke="white" stroke-width="1"/>
  <text x="339" y="805" fill="#6b7280" font-family="Inter, sans-serif" font-size="11">Settings</text>
</svg>