<?xml version="1.0" encoding="UTF-8"?>
<svg width="390" height="844" viewBox="0 0 390 844" fill="none" xmlns="http://www.w3.org/2000/svg">
  <!-- Background -->
  <rect width="390" height="844" fill="#fefce8"/>
  
  <!-- Status Bar -->
  <rect width="390" height="44" fill="#1e3a8a"/>
  <text x="20" y="30" fill="white" font-family="Inter, sans-serif" font-size="14" font-weight="600">9:41</text>
  <text x="350" y="30" fill="white" font-family="Inter, sans-serif" font-size="14">100%</text>
  
  <!-- Header -->
  <rect x="0" y="44" width="390" height="80" fill="#1e3a8a"/>
  <path d="M28 79 L33 84 L28 89" stroke="white" stroke-width="2" fill="none"/>
  <text x="50" y="95" fill="white" font-family="Inter, sans-serif" font-size="24" font-weight="700">Scripture</text>
  <text x="50" y="115" fill="#a5b4fc" font-family="Inter, sans-serif" font-size="14">Browse by Bible references</text>
  
  <!-- Search Icon -->
  <circle cx="350" cy="84" r="20" fill="rgba(255,255,255,0.1)"/>
  <circle cx="347" cy="81" r="7" fill="none" stroke="white" stroke-width="2"/>
  <path d="M352 86 L356 90" stroke="white" stroke-width="2"/>
  
  <!-- Testament Filter -->
  <rect x="0" y="124" width="390" height="60" fill="white" stroke="#e5e7eb" stroke-width="1"/>
  <text x="20" y="142" fill="#1e3a8a" font-family="Inter, sans-serif" font-size="14" font-weight="600">Testament:</text>
  
  <!-- Filter Chips -->
  <rect x="20" y="152" width="60" height="24" rx="12" fill="#eff6ff" stroke="#0284c7" stroke-width="1"/>
  <text x="50" y="167" fill="#0284c7" font-family="Inter, sans-serif" font-size="12" font-weight="500" text-anchor="middle">All (89)</text>
  
  <rect x="90" y="152" width="80" height="24" rx="12" fill="white" stroke="#e5e7eb" stroke-width="1"/>
  <text x="130" y="167" fill="#6b7280" font-family="Inter, sans-serif" font-size="12" text-anchor="middle">Old Test. (45)</text>
  
  <rect x="180" y="152" width="80" height="24" rx="12" fill="white" stroke="#e5e7eb" stroke-width="1"/>
  <text x="220" y="167" fill="#6b7280" font-family="Inter, sans-serif" font-size="12" text-anchor="middle">New Test. (44)</text>
  
  <rect x="270" y="152" width="100" height="24" rx="12" fill="white" stroke="#e5e7eb" stroke-width="1"/>
  <text x="320" y="167" fill="#6b7280" font-family="Inter, sans-serif" font-size="12" text-anchor="middle">Psalms (23)</text>
  
  <!-- Popular Scripture Section -->
  <text x="20" y="210" fill="#1e3a8a" font-family="Inter, sans-serif" font-size="18" font-weight="600">Popular References</text>
  
  <!-- Featured Scripture Cards -->
  <rect x="20" y="224" width="165" height="100" rx="12" fill="white" stroke="#e5e7eb" stroke-width="1"/>
  <rect x="32" y="236" width="141" height="40" rx="8" fill="#7c3aed"/>
  <text x="102" y="260" fill="white" font-family="Inter, sans-serif" font-size="16" font-weight="700" text-anchor="middle">Psalm 23</text>
  <text x="32" y="280" fill="#1e3a8a" font-family="Inter, sans-serif" font-size="14" font-weight="600">The Lord's Shepherd</text>
  <text x="32" y="295" fill="#6b7280" font-family="Inter, sans-serif" font-size="12">Referenced in 8 hymns</text>
  <text x="32" y="310" fill="#16a34a" font-family="Inter, sans-serif" font-size="12" font-weight="500">Most popular</text>
  
  <rect x="205" y="224" width="165" height="100" rx="12" fill="white" stroke="#e5e7eb" stroke-width="1"/>
  <rect x="217" y="236" width="141" height="40" rx="8" fill="#dc2626"/>
  <text x="287" y="260" fill="white" font-family="Inter, sans-serif" font-size="16" font-weight="700" text-anchor="middle">John 3:16</text>
  <text x="217" y="280" fill="#1e3a8a" font-family="Inter, sans-serif" font-size="14" font-weight="600">God's Love</text>
  <text x="217" y="295" fill="#6b7280" font-family="Inter, sans-serif" font-size="12">Referenced in 6 hymns</text>
  <text x="217" y="310" fill="#16a34a" font-family="Inter, sans-serif" font-size="12" font-weight="500">Essential theme</text>
  
  <!-- All Scripture List -->
  <text x="20" y="354" fill="#1e3a8a" font-family="Inter, sans-serif" font-size="18" font-weight="600">All References</text>
  <text x="280" y="354" fill="#0284c7" font-family="Inter, sans-serif" font-size="14" font-weight="500">Sort by Book</text>
  
  <!-- Scripture Items -->
  <!-- Scripture 1 -->
  <rect x="20" y="368" width="350" height="64" rx="8" fill="white" stroke="#e5e7eb" stroke-width="1"/>
  <rect x="32" y="380" width="60" height="32" rx="6" fill="#f59e0b"/>
  <text x="62" y="400" fill="white" font-family="Inter, sans-serif" font-size="12" font-weight="700" text-anchor="middle">GEN 1:1</text>
  <text x="104" y="391" fill="#1e3a8a" font-family="Inter, sans-serif" font-size="16" font-weight="600">Genesis 1:1</text>
  <text x="104" y="407" fill="#6b7280" font-family="Inter, sans-serif" font-size="14">"In the beginning God created..."</text>
  <text x="104" y="420" fill="#16a34a" font-family="Inter, sans-serif" font-size="12" font-weight="500">3 hymns reference this</text>
  <circle cx="320" cy="396" r="8" fill="#16a34a"/>
  <text x="320" y="400" fill="white" font-family="Inter, sans-serif" font-size="10" font-weight="700" text-anchor="middle">3</text>
  <path d="M345 391 L350 396 L345 401" stroke="#9ca3af" stroke-width="2" fill="none"/>
  
  <!-- Scripture 2 -->
  <rect x="20" y="444" width="350" height="64" rx="8" fill="white" stroke="#e5e7eb" stroke-width="1"/>
  <rect x="32" y="456" width="60" height="32" rx="6" fill="#0284c7"/>
  <text x="62" y="476" fill="white" font-family="Inter, sans-serif" font-size="12" font-weight="700" text-anchor="middle">PSA 46:1</text>
  <text x="104" y="467" fill="#1e3a8a" font-family="Inter, sans-serif" font-size="16" font-weight="600">Psalm 46:1</text>
  <text x="104" y="483" fill="#6b7280" font-family="Inter, sans-serif" font-size="14">"God is our refuge and strength..."</text>
  <text x="104" y="496" fill="#16a34a" font-family="Inter, sans-serif" font-size="12" font-weight="500">5 hymns reference this</text>
  <circle cx="320" cy="472" r="8" fill="#16a34a"/>
  <text x="320" y="476" fill="white" font-family="Inter, sans-serif" font-size="10" font-weight="700" text-anchor="middle">5</text>
  <path d="M345 467 L350 472 L345 477" stroke="#9ca3af" stroke-width="2" fill="none"/>
  
  <!-- Scripture 3 -->
  <rect x="20" y="520" width="350" height="64" rx="8" fill="white" stroke="#e5e7eb" stroke-width="1"/>
  <rect x="32" y="532" width="60" height="32" rx="6" fill="#16a34a"/>
  <text x="62" y="552" fill="white" font-family="Inter, sans-serif" font-size="12" font-weight="700" text-anchor="middle">MAT 5:4</text>
  <text x="104" y="543" fill="#1e3a8a" font-family="Inter, sans-serif" font-size="16" font-weight="600">Matthew 5:4</text>
  <text x="104" y="559" fill="#6b7280" font-family="Inter, sans-serif" font-size="14">"Blessed are those who mourn..."</text>
  <text x="104" y="572" fill="#16a34a" font-family="Inter, sans-serif" font-size="12" font-weight="500">2 hymns reference this</text>
  <circle cx="320" cy="548" r="8" fill="#16a34a"/>
  <text x="320" y="552" fill="white" font-family="Inter, sans-serif" font-size="10" font-weight="700" text-anchor="middle">2</text>
  <path d="M345 543 L350 548 L345 553" stroke="#9ca3af" stroke-width="2" fill="none"/>
  
  <!-- Scripture 4 -->
  <rect x="20" y="596" width="350" height="64" rx="8" fill="white" stroke="#e5e7eb" stroke-width="1"/>
  <rect x="32" y="608" width="60" height="32" rx="6" fill="#dc2626"/>
  <text x="62" y="628" fill="white" font-family="Inter, sans-serif" font-size="12" font-weight="700" text-anchor="middle">REV 21:4</text>
  <text x="104" y="619" fill="#1e3a8a" font-family="Inter, sans-serif" font-size="16" font-weight="600">Revelation 21:4</text>
  <text x="104" y="635" fill="#6b7280" font-family="Inter, sans-serif" font-size="14">"He will wipe every tear..."</text>
  <text x="104" y="648" fill="#16a34a" font-family="Inter, sans-serif" font-size="12" font-weight="500">4 hymns reference this</text>
  <circle cx="320" cy="624" r="8" fill="#16a34a"/>
  <text x="320" y="628" fill="white" font-family="Inter, sans-serif" font-size="10" font-weight="700" text-anchor="middle">4</text>
  <path d="M345 619 L350 624 L345 629" stroke="#9ca3af" stroke-width="2" fill="none"/>
  
  <!-- Scripture 5 -->
  <rect x="20" y="672" width="350" height="64" rx="8" fill="white" stroke="#e5e7eb" stroke-width="1"/>
  <rect x="32" y="684" width="60" height="32" rx="6" fill="#7c3aed"/>
  <text x="62" y="704" fill="white" font-family="Inter, sans-serif" font-size="12" font-weight="700" text-anchor="middle">1CO 15:55</text>
  <text x="104" y="695" fill="#1e3a8a" font-family="Inter, sans-serif" font-size="16" font-weight="600">1 Corinthians 15:55</text>
  <text x="104" y="711" fill="#6b7280" font-family="Inter, sans-serif" font-size="14">"Where, O death, is your victory?"</text>
  <text x="104" y="724" fill="#16a34a" font-family="Inter, sans-serif" font-size="12" font-weight="500">1 hymn references this</text>
  <circle cx="320" cy="700" r="8" fill="#16a34a"/>
  <text x="320" y="704" fill="white" font-family="Inter, sans-serif" font-size="10" font-weight="700" text-anchor="middle">1</text>
  <path d="M345 695 L350 700 L345 705" stroke="#9ca3af" stroke-width="2" fill="none"/>
  
  <!-- Scroll Indicator -->
  <rect x="370" y="400" width="4" height="280" rx="2" fill="#e5e7eb"/>
  <rect x="370" y="400" width="4" height="100" rx="2" fill="#0284c7"/>
  
  <!-- Bottom Navigation -->
  <rect x="0" y="760" width="390" height="84" fill="white" stroke="#e5e7eb" stroke-width="1"/>
  
  <!-- Home Tab -->
  <circle cx="39" cy="785" r="12" fill="#9ca3af"/>
  <path d="M33 785 L39 779 L45 785 L42 785 L42 791 L36 791 L36 785 Z" fill="white"/>
  <text x="27" y="805" fill="#6b7280" font-family="Inter, sans-serif" font-size="11">Home</text>
  
  <!-- Browse Tab (Active) -->
  <rect x="78" y="760" width="78" height="84" fill="#eff6ff"/>
  <circle cx="117" cy="785" r="12" fill="#0284c7"/>
  <rect x="111" y="779" width="12" height="2" fill="white"/>
  <rect x="111" y="783" width="12" height="2" fill="white"/>
  <rect x="111" y="787" width="12" height="2" fill="white"/>
  <rect x="111" y="791" width="12" height="2" fill="white"/>
  <text x="103" y="805" fill="#0284c7" font-family="Inter, sans-serif" font-size="11" font-weight="600">Browse</text>
  
  <!-- Search Tab -->
  <circle cx="195" cy="785" r="12" fill="#9ca3af"/>
  <circle cx="193" cy="783" r="5" fill="none" stroke="white" stroke-width="2"/>
  <path d="M197 787 L201 791" stroke="white" stroke-width="2"/>
  <text x="185" y="805" fill="#6b7280" font-family="Inter, sans-serif" font-size="11">Search</text>
  
  <!-- Downloads Tab -->
  <circle cx="273" cy="785" r="12" fill="#9ca3af"/>
  <path d="M269 781 L269 789 M269 789 L273 785 M269 789 L277 785" stroke="white" stroke-width="2" fill="none"/>
  <text x="255" y="805" fill="#6b7280" font-family="Inter, sans-serif" font-size="11">Downloads</text>
  
  <!-- Settings Tab -->
  <circle cx="351" cy="785" r="12" fill="#9ca3af"/>
  <circle cx="351" cy="785" r="4" fill="none" stroke="white" stroke-width="2"/>
  <path d="M351 777 L351 779 M351 791 L351 793 M343 785 L345 785 M357 785 L359 785 M345 779 L347 781 M355 789 L357 791 M345 791 L347 789 M355 779 L357 781" stroke="white" stroke-width="1"/>
  <text x="339" y="805" fill="#6b7280" font-family="Inter, sans-serif" font-size="11">Settings</text>
</svg>