<?xml version="1.0" encoding="UTF-8"?>
<svg width="390" height="844" viewBox="0 0 390 844" fill="none" xmlns="http://www.w3.org/2000/svg">
  <!-- Background -->
  <rect width="390" height="844" fill="#fefce8"/>
  
  <!-- Status Bar -->
  <rect width="390" height="44" fill="#1e3a8a"/>
  <text x="20" y="30" fill="white" font-family="Inter, sans-serif" font-size="14" font-weight="600">9:41</text>
  <text x="350" y="30" fill="white" font-family="Inter, sans-serif" font-size="14">100%</text>
  
  <!-- Header -->
  <rect x="0" y="44" width="390" height="80" fill="#1e3a8a"/>
  <path d="M28 79 L33 84 L28 89" stroke="white" stroke-width="2" fill="none"/>
  <text x="50" y="95" fill="white" font-family="Inter, sans-serif" font-size="24" font-weight="700">First Lines</text>
  <text x="50" y="115" fill="#a5b4fc" font-family="Inter, sans-serif" font-size="14">Browse hymns alphabetically</text>
  
  <!-- Search Icon -->
  <circle cx="350" cy="84" r="20" fill="rgba(255,255,255,0.1)"/>
  <circle cx="347" cy="81" r="7" fill="none" stroke="white" stroke-width="2"/>
  <path d="M352 86 L356 90" stroke="white" stroke-width="2"/>
  
  <!-- Alphabet Filter -->
  <rect x="0" y="124" width="390" height="48" fill="white" stroke="#e5e7eb" stroke-width="1"/>
  <rect x="8" y="132" width="374" height="32" rx="16" fill="#f3f4f6"/>
  
  <!-- Alphabet letters -->
  <text x="20" y="152" fill="#0284c7" font-family="Inter, sans-serif" font-size="14" font-weight="600">A</text>
  <text x="35" y="152" fill="#6b7280" font-family="Inter, sans-serif" font-size="14">B</text>
  <text x="50" y="152" fill="#6b7280" font-family="Inter, sans-serif" font-size="14">C</text>
  <text x="65" y="152" fill="#6b7280" font-family="Inter, sans-serif" font-size="14">D</text>
  <text x="80" y="152" fill="#6b7280" font-family="Inter, sans-serif" font-size="14">E</text>
  <text x="95" y="152" fill="#6b7280" font-family="Inter, sans-serif" font-size="14">F</text>
  <text x="110" y="152" fill="#6b7280" font-family="Inter, sans-serif" font-size="14">G</text>
  <text x="125" y="152" fill="#6b7280" font-family="Inter, sans-serif" font-size="14">H</text>
  <text x="140" y="152" fill="#6b7280" font-family="Inter, sans-serif" font-size="14">I</text>
  <text x="155" y="152" fill="#6b7280" font-family="Inter, sans-serif" font-size="14">J</text>
  <text x="170" y="152" fill="#6b7280" font-family="Inter, sans-serif" font-size="14">K</text>
  <text x="185" y="152" fill="#6b7280" font-family="Inter, sans-serif" font-size="14">L</text>
  <text x="200" y="152" fill="#6b7280" font-family="Inter, sans-serif" font-size="14">M</text>
  <text x="215" y="152" fill="#6b7280" font-family="Inter, sans-serif" font-size="14">N</text>
  <text x="230" y="152" fill="#6b7280" font-family="Inter, sans-serif" font-size="14">O</text>
  <text x="245" y="152" fill="#6b7280" font-family="Inter, sans-serif" font-size="14">P</text>
  <text x="260" y="152" fill="#6b7280" font-family="Inter, sans-serif" font-size="14">Q</text>
  <text x="275" y="152" fill="#6b7280" font-family="Inter, sans-serif" font-size="14">R</text>
  <text x="290" y="152" fill="#6b7280" font-family="Inter, sans-serif" font-size="14">S</text>
  <text x="305" y="152" fill="#6b7280" font-family="Inter, sans-serif" font-size="14">T</text>
  <text x="320" y="152" fill="#6b7280" font-family="Inter, sans-serif" font-size="14">U</text>
  <text x="335" y="152" fill="#6b7280" font-family="Inter, sans-serif" font-size="14">V</text>
  <text x="350" y="152" fill="#6b7280" font-family="Inter, sans-serif" font-size="14">W</text>
  <text x="365" y="152" fill="#6b7280" font-family="Inter, sans-serif" font-size="14">X</text>
  
  <!-- Active letter indicator -->
  <rect x="16" y="144" width="8" height="2" rx="1" fill="#0284c7"/>
  
  <!-- Stats Bar -->
  <rect x="20" y="188" width="350" height="40" rx="8" fill="#eff6ff" stroke="#0284c7" stroke-width="1"/>
  <text x="32" y="206" fill="#0284c7" font-family="Inter, sans-serif" font-size="14" font-weight="600">Showing 12 hymns starting with 'A'</text>
  <text x="32" y="219" fill="#6b7280" font-family="Inter, sans-serif" font-size="12">892 total hymns in collection</text>
  
  <!-- First Lines List -->
  <!-- Hymn 1 -->
  <rect x="20" y="248" width="350" height="76" rx="8" fill="white" stroke="#e5e7eb" stroke-width="1"/>
  <text x="32" y="272" fill="#1e3a8a" font-family="Crimson Text, serif" font-size="18" font-weight="600">"Abide with me; fast falls the eventide"</text>
  <text x="32" y="290" fill="#6b7280" font-family="Inter, sans-serif" font-size="14">Henry Francis Lyte • SDAH #52</text>
  <text x="32" y="307" fill="#6b7280" font-family="Inter, sans-serif" font-size="12">Tune: EVENTIDE • 10.10.10.10</text>
  
  <!-- Media indicators -->
  <circle cx="300" cy="270" r="8" fill="#0284c7"/>
  <text x="300" y="274" fill="white" font-family="Inter, sans-serif" font-size="8" font-weight="700" text-anchor="middle">♪</text>
  <circle cx="320" cy="270" r="8" fill="#16a34a"/>
  <text x="320" y="274" fill="white" font-family="Inter, sans-serif" font-size="8" font-weight="700" text-anchor="middle">♫</text>
  
  <path d="M345 275 L350 280 L345 285" stroke="#9ca3af" stroke-width="2" fill="none"/>
  
  <!-- Hymn 2 -->
  <rect x="20" y="336" width="350" height="76" rx="8" fill="white" stroke="#e5e7eb" stroke-width="1"/>
  <text x="32" y="360" fill="#1e3a8a" font-family="Crimson Text, serif" font-size="18" font-weight="600">"All hail the power of Jesus' name!"</text>
  <text x="32" y="378" fill="#6b7280" font-family="Inter, sans-serif" font-size="14">Edward Perronet • CH #45</text>
  <text x="32" y="395" fill="#6b7280" font-family="Inter, sans-serif" font-size="12">Tune: CORONATION • 8.6.8.6 (C.M.)</text>
  
  <!-- Media indicators -->
  <circle cx="300" cy="358" r="8" fill="#0284c7"/>
  <text x="300" y="362" fill="white" font-family="Inter, sans-serif" font-size="8" font-weight="700" text-anchor="middle">♪</text>
  
  <path d="M345 363 L350 368 L345 373" stroke="#9ca3af" stroke-width="2" fill="none"/>
  
  <!-- Hymn 3 -->
  <rect x="20" y="424" width="350" height="76" rx="8" fill="white" stroke="#e5e7eb" stroke-width="1"/>
  <text x="32" y="448" fill="#1e3a8a" font-family="Crimson Text, serif" font-size="18" font-weight="600">"Amazing grace! How sweet the sound"</text>
  <text x="32" y="466" fill="#6b7280" font-family="Inter, sans-serif" font-size="14">John Newton • SDAH #123</text>
  <text x="32" y="483" fill="#6b7280" font-family="Inter, sans-serif" font-size="12">Tune: NEW BRITAIN • 8.6.8.6 (C.M.)</text>
  
  <!-- Media indicators -->
  <circle cx="300" cy="446" r="8" fill="#0284c7"/>
  <text x="300" y="450" fill="white" font-family="Inter, sans-serif" font-size="8" font-weight="700" text-anchor="middle">♪</text>
  <circle cx="320" cy="446" r="8" fill="#16a34a"/>
  <text x="320" y="450" fill="white" font-family="Inter, sans-serif" font-size="8" font-weight="700" text-anchor="middle">♫</text>
  <circle cx="340" cy="446" r="8" fill="#dc2626"/>
  <text x="340" y="450" fill="white" font-family="Inter, sans-serif" font-size="8" font-weight="700" text-anchor="middle">📄</text>
  
  <path d="M345 451 L350 456 L345 461" stroke="#9ca3af" stroke-width="2" fill="none"/>
  
  <!-- Hymn 4 -->
  <rect x="20" y="512" width="350" height="76" rx="8" fill="white" stroke="#e5e7eb" stroke-width="1"/>
  <text x="32" y="536" fill="#1e3a8a" font-family="Crimson Text, serif" font-size="18" font-weight="600">"Angels from the realms of glory"</text>
  <text x="32" y="554" fill="#6b7280" font-family="Inter, sans-serif" font-size="14">James Montgomery • CH #78</text>
  <text x="32" y="571" fill="#6b7280" font-family="Inter, sans-serif" font-size="12">Tune: REGENT SQUARE • 8.7.8.7</text>
  
  <!-- Media indicators -->
  <circle cx="320" cy="534" r="8" fill="#16a34a"/>
  <text x="320" y="538" fill="white" font-family="Inter, sans-serif" font-size="8" font-weight="700" text-anchor="middle">♫</text>
  
  <path d="M345 539 L350 544 L345 549" stroke="#9ca3af" stroke-width="2" fill="none"/>
  
  <!-- Hymn 5 -->
  <rect x="20" y="600" width="350" height="76" rx="8" fill="white" stroke="#e5e7eb" stroke-width="1"/>
  <text x="32" y="624" fill="#1e3a8a" font-family="Crimson Text, serif" font-size="18" font-weight="600">"At the cross, at the cross"</text>
  <text x="32" y="642" fill="#6b7280" font-family="Inter, sans-serif" font-size="14">Isaac Watts • SDAH #87</text>
  <text x="32" y="659" fill="#6b7280" font-family="Inter, sans-serif" font-size="12">Tune: HUDSON • Irregular</text>
  
  <!-- Media indicators -->
  <circle cx="300" cy="622" r="8" fill="#0284c7"/>
  <text x="300" y="626" fill="white" font-family="Inter, sans-serif" font-size="8" font-weight="700" text-anchor="middle">♪</text>
  <circle cx="340" cy="622" r="8" fill="#dc2626"/>
  <text x="340" y="626" fill="white" font-family="Inter, sans-serif" font-size="8" font-weight="700" text-anchor="middle">📄</text>
  
  <path d="M345 627 L350 632 L345 637" stroke="#9ca3af" stroke-width="2" fill="none"/>
  
  <!-- Scroll Indicator -->
  <rect x="370" y="300" width="4" height="350" rx="2" fill="#e5e7eb"/>
  <rect x="370" y="300" width="4" height="120" rx="2" fill="#0284c7"/>
  
  <!-- Load More Button -->
  <rect x="20" y="688" width="350" height="40" rx="20" fill="white" stroke="#0284c7" stroke-width="1"/>
  <text x="195" y="712" fill="#0284c7" font-family="Inter, sans-serif" font-size="14" font-weight="500" text-anchor="middle">Load More (7 remaining for 'A')</text>
  
  <!-- Bottom Navigation -->
  <rect x="0" y="760" width="390" height="84" fill="white" stroke="#e5e7eb" stroke-width="1"/>
  
  <!-- Home Tab -->
  <circle cx="39" cy="785" r="12" fill="#9ca3af"/>
  <path d="M33 785 L39 779 L45 785 L42 785 L42 791 L36 791 L36 785 Z" fill="white"/>
  <text x="27" y="805" fill="#6b7280" font-family="Inter, sans-serif" font-size="11">Home</text>
  
  <!-- Browse Tab (Active) -->
  <rect x="78" y="760" width="78" height="84" fill="#eff6ff"/>
  <circle cx="117" cy="785" r="12" fill="#0284c7"/>
  <rect x="111" y="779" width="12" height="2" fill="white"/>
  <rect x="111" y="783" width="12" height="2" fill="white"/>
  <rect x="111" y="787" width="12" height="2" fill="white"/>
  <rect x="111" y="791" width="12" height="2" fill="white"/>
  <text x="103" y="805" fill="#0284c7" font-family="Inter, sans-serif" font-size="11" font-weight="600">Browse</text>
  
  <!-- Search Tab -->
  <circle cx="195" cy="785" r="12" fill="#9ca3af"/>
  <circle cx="193" cy="783" r="5" fill="none" stroke="white" stroke-width="2"/>
  <path d="M197 787 L201 791" stroke="white" stroke-width="2"/>
  <text x="185" y="805" fill="#6b7280" font-family="Inter, sans-serif" font-size="11">Search</text>
  
  <!-- Downloads Tab -->
  <circle cx="273" cy="785" r="12" fill="#9ca3af"/>
  <path d="M269 781 L269 789 M269 789 L273 785 M269 789 L277 785" stroke="white" stroke-width="2" fill="none"/>
  <text x="255" y="805" fill="#6b7280" font-family="Inter, sans-serif" font-size="11">Downloads</text>
  
  <!-- Settings Tab -->
  <circle cx="351" cy="785" r="12" fill="#9ca3af"/>
  <circle cx="351" cy="785" r="4" fill="none" stroke="white" stroke-width="2"/>
  <path d="M351 777 L351 779 M351 791 L351 793 M343 785 L345 785 M357 785 L359 785 M345 779 L347 781 M355 789 L357 791 M345 791 L347 789 M355 779 L357 781" stroke="white" stroke-width="1"/>
  <text x="339" y="805" fill="#6b7280" font-family="Inter, sans-serif" font-size="11">Settings</text>
</svg>