<?xml version="1.0" encoding="UTF-8"?>
<svg width="390" height="844" viewBox="0 0 390 844" fill="none" xmlns="http://www.w3.org/2000/svg">
  <!-- Background -->
  <rect width="390" height="844" fill="#fefce8"/>
  
  <!-- Status Bar -->
  <rect width="390" height="44" fill="#1e3a8a"/>
  <text x="20" y="30" fill="white" font-family="Inter, sans-serif" font-size="14" font-weight="600">9:41</text>
  <text x="350" y="30" fill="white" font-family="Inter, sans-serif" font-size="14">100%</text>
  
  <!-- Header -->
  <rect x="0" y="44" width="390" height="80" fill="#1e3a8a"/>
  <text x="20" y="95" fill="white" font-family="Inter, sans-serif" font-size="24" font-weight="700">Browse</text>
  <text x="20" y="115" fill="#a5b4fc" font-family="Inter, sans-serif" font-size="14">Explore hymns by different categories</text>
  
  <!-- Search Icon -->
  <circle cx="350" cy="84" r="20" fill="rgba(255,255,255,0.1)"/>
  <circle cx="347" cy="81" r="7" fill="none" stroke="white" stroke-width="2"/>
  <path d="M352 86 L356 90" stroke="white" stroke-width="2"/>
  
  <!-- Browse Categories Grid -->
  <!-- Row 1: Collections and Authors -->
  <rect x="20" y="144" width="165" height="100" rx="12" fill="white" stroke="#e5e7eb" stroke-width="1"/>
  <rect x="32" y="156" width="141" height="40" rx="8" fill="#1e3a8a"/>
  <text x="102" y="180" fill="white" font-family="Inter, sans-serif" font-size="16" font-weight="700" text-anchor="middle">Collections</text>
  <text x="32" y="215" fill="#1e3a8a" font-family="Inter, sans-serif" font-size="14" font-weight="600">Hymnal Books</text>
  <text x="32" y="230" fill="#6b7280" font-family="Inter, sans-serif" font-size="12">12 collections - SDAH, CH, CS</text>
  
  <rect x="205" y="144" width="165" height="100" rx="12" fill="white" stroke="#e5e7eb" stroke-width="1"/>
  <rect x="217" y="156" width="141" height="40" rx="8" fill="#0284c7"/>
  <text x="287" y="180" fill="white" font-family="Inter, sans-serif" font-size="16" font-weight="700" text-anchor="middle">Authors</text>
  <text x="217" y="215" fill="#1e3a8a" font-family="Inter, sans-serif" font-size="14" font-weight="600">Hymn Writers</text>
  <text x="217" y="230" fill="#6b7280" font-family="Inter, sans-serif" font-size="12">247 authors - Newton, Wesley</text>
  
  <!-- Row 2: Topics and Tunes -->
  <rect x="20" y="264" width="165" height="100" rx="12" fill="white" stroke="#e5e7eb" stroke-width="1"/>
  <rect x="32" y="276" width="141" height="40" rx="8" fill="#16a34a"/>
  <text x="102" y="300" fill="white" font-family="Inter, sans-serif" font-size="16" font-weight="700" text-anchor="middle">Topics</text>
  <text x="32" y="335" fill="#1e3a8a" font-family="Inter, sans-serif" font-size="14" font-weight="600">Themes and Subjects</text>
  <text x="32" y="350" fill="#6b7280" font-family="Inter, sans-serif" font-size="12">89 topics - Grace, Christmas</text>
  
  <rect x="205" y="264" width="165" height="100" rx="12" fill="white" stroke="#e5e7eb" stroke-width="1"/>
  <rect x="217" y="276" width="141" height="40" rx="8" fill="#f59e0b"/>
  <text x="287" y="300" fill="white" font-family="Inter, sans-serif" font-size="16" font-weight="700" text-anchor="middle">Tunes</text>
  <text x="217" y="335" fill="#1e3a8a" font-family="Inter, sans-serif" font-size="14" font-weight="600">Musical Tunes</text>
  <text x="217" y="350" fill="#6b7280" font-family="Inter, sans-serif" font-size="12">156 tunes - NEW BRITAIN</text>
  
  <!-- Row 3: Meters and Scripture -->
  <rect x="20" y="384" width="165" height="100" rx="12" fill="white" stroke="#e5e7eb" stroke-width="1"/>
  <rect x="32" y="396" width="141" height="40" rx="8" fill="#7c3aed"/>
  <text x="102" y="420" fill="white" font-family="Inter, sans-serif" font-size="16" font-weight="700" text-anchor="middle">Meters</text>
  <text x="32" y="455" fill="#1e3a8a" font-family="Inter, sans-serif" font-size="14" font-weight="600">Metrical Patterns</text>
  <text x="32" y="470" fill="#6b7280" font-family="Inter, sans-serif" font-size="12">42 meters - 8.6.8.6 (C.M.)</text>
  
  <rect x="205" y="384" width="165" height="100" rx="12" fill="white" stroke="#e5e7eb" stroke-width="1"/>
  <rect x="217" y="396" width="141" height="40" rx="8" fill="#dc2626"/>
  <text x="287" y="420" fill="white" font-family="Inter, sans-serif" font-size="16" font-weight="700" text-anchor="middle">Scripture</text>
  <text x="217" y="455" fill="#1e3a8a" font-family="Inter, sans-serif" font-size="14" font-weight="600">Bible References</text>
  <text x="217" y="470" fill="#6b7280" font-family="Inter, sans-serif" font-size="12">89 refs - Psalm 23, John 3:16</text>
  
  <!-- Row 4: First Lines -->
  <rect x="20" y="504" width="350" height="80" rx="12" fill="white" stroke="#e5e7eb" stroke-width="1"/>
  <rect x="32" y="516" width="326" height="32" rx="8" fill="#0f766e"/>
  <text x="195" y="536" fill="white" font-family="Inter, sans-serif" font-size="16" font-weight="700" text-anchor="middle">First Lines</text>
  <text x="32" y="563" fill="#1e3a8a" font-family="Inter, sans-serif" font-size="14" font-weight="600">Alphabetical Hymn Listing</text>
  <text x="32" y="575" fill="#6b7280" font-family="Inter, sans-serif" font-size="12">892 hymns - Amazing grace! How sweet...</text>
  
  <!-- Quick Stats Section -->
  <rect x="20" y="604" width="350" height="72" rx="12" fill="#eff6ff" stroke="#0284c7" stroke-width="1"/>
  <text x="32" y="625" fill="#1e3a8a" font-family="Inter, sans-serif" font-size="16" font-weight="600">Collection Statistics</text>
  
  <!-- Stats Grid -->
  <rect x="32" y="640" width="80" height="24" rx="4" fill="white"/>
  <text x="42" y="655" fill="#0284c7" font-family="Inter, sans-serif" font-size="12" font-weight="600">892 Hymns</text>
  
  <rect x="124" y="640" width="80" height="24" rx="4" fill="white"/>
  <text x="134" y="655" fill="#16a34a" font-family="Inter, sans-serif" font-size="12" font-weight="600">247 Authors</text>
  
  <rect x="216" y="640" width="80" height="24" rx="4" fill="white"/>
  <text x="226" y="655" fill="#f59e0b" font-family="Inter, sans-serif" font-size="12" font-weight="600">156 Tunes</text>
  
  <rect x="308" y="640" width="50" height="24" rx="4" fill="white"/>
  <text x="318" y="655" fill="#7c3aed" font-family="Inter, sans-serif" font-size="12" font-weight="600">89 Topics</text>
  
  <!-- Recently Browsed Section -->
  <text x="20" y="700" fill="#1e3a8a" font-family="Inter, sans-serif" font-size="16" font-weight="600">Recently Browsed</text>
  
  <rect x="20" y="708" width="350" height="40" rx="8" fill="white" stroke="#e5e7eb" stroke-width="1"/>
  <circle cx="40" cy="728" r="12" fill="#16a34a"/>
  <text x="40" y="732" fill="white" font-family="Inter, sans-serif" font-size="8" font-weight="700" text-anchor="middle">T</text>
  <text x="62" y="725" fill="#1e3a8a" font-family="Inter, sans-serif" font-size="14" font-weight="600">Topics</text>
  <text x="62" y="737" fill="#6b7280" font-family="Inter, sans-serif" font-size="12">Last visited: Christmas themes</text>
  <text x="320" y="732" fill="#6b7280" font-family="Inter, sans-serif" font-size="12">2 hours ago</text>
  
  <!-- Bottom Navigation -->
  <rect x="0" y="760" width="390" height="84" fill="white" stroke="#e5e7eb" stroke-width="1"/>
  
  <!-- Home Tab -->
  <circle cx="39" cy="785" r="12" fill="#9ca3af"/>
  <path d="M33 785 L39 779 L45 785 L42 785 L42 791 L36 791 L36 785 Z" fill="white"/>
  <text x="27" y="805" fill="#6b7280" font-family="Inter, sans-serif" font-size="11">Home</text>
  
  <!-- Browse Tab (Active) -->
  <rect x="78" y="760" width="78" height="84" fill="#eff6ff"/>
  <circle cx="117" cy="785" r="12" fill="#0284c7"/>
  <rect x="111" y="779" width="12" height="2" fill="white"/>
  <rect x="111" y="783" width="12" height="2" fill="white"/>
  <rect x="111" y="787" width="12" height="2" fill="white"/>
  <rect x="111" y="791" width="12" height="2" fill="white"/>
  <text x="103" y="805" fill="#0284c7" font-family="Inter, sans-serif" font-size="11" font-weight="600">Browse</text>
  
  <!-- Search Tab -->
  <circle cx="195" cy="785" r="12" fill="#9ca3af"/>
  <circle cx="193" cy="783" r="5" fill="none" stroke="white" stroke-width="2"/>
  <path d="M197 787 L201 791" stroke="white" stroke-width="2"/>
  <text x="185" y="805" fill="#6b7280" font-family="Inter, sans-serif" font-size="11">Search</text>
  
  <!-- Downloads Tab -->
  <circle cx="273" cy="785" r="12" fill="#9ca3af"/>
  <path d="M269 781 L269 789 M269 789 L273 785 M269 789 L277 785" stroke="white" stroke-width="2" fill="none"/>
  <text x="255" y="805" fill="#6b7280" font-family="Inter, sans-serif" font-size="11">Downloads</text>
  
  <!-- Settings Tab -->
  <circle cx="351" cy="785" r="12" fill="#9ca3af"/>
  <circle cx="351" cy="785" r="4" fill="none" stroke="white" stroke-width="2"/>
  <path d="M351 777 L351 779 M351 791 L351 793 M343 785 L345 785 M357 785 L359 785 M345 779 L347 781 M355 789 L357 791 M345 791 L347 789 M355 779 L357 781" stroke="white" stroke-width="1"/>
  <text x="339" y="805" fill="#6b7280" font-family="Inter, sans-serif" font-size="11">Settings</text>
</svg>