<?xml version="1.0" encoding="UTF-8"?>
<svg width="390" height="844" viewBox="0 0 390 844" fill="none" xmlns="http://www.w3.org/2000/svg">
  <!-- Background -->
  <rect width="390" height="844" fill="#fefce8"/>
  
  <!-- Status Bar -->
  <rect width="390" height="44" fill="#1e3a8a"/>
  <text x="20" y="30" fill="white" font-family="Inter, sans-serif" font-size="14" font-weight="600">9:41</text>
  <text x="350" y="30" fill="white" font-family="Inter, sans-serif" font-size="14">100%</text>
  
  <!-- Header -->
  <rect x="0" y="44" width="390" height="80" fill="#1e3a8a"/>
  <text x="20" y="95" fill="white" font-family="Inter, sans-serif" font-size="24" font-weight="700">My Favorites</text>
  <text x="20" y="115" fill="#a5b4fc" font-family="Inter, sans-serif" font-size="14">24 saved hymns</text>
  
  <!-- Heart icon in header -->
  <path d="M340 75 L348 83 L356 75 C359 72 359 67 356 64 C353 61 348 61 345 64 L348 67 L351 64 C354 61 359 61 362 64 C365 67 365 72 362 75 L354 83 L346 75 C343 72 343 67 346 64 C349 61 354 61 357 64 L354 67 L357 64 C360 61 365 61 368 64 C371 67 371 72 368 75 L360 83 L352 75 Z" fill="#dc2626"/>
  
  <!-- Search Bar -->
  <rect x="20" y="144" width="300" height="44" rx="22" fill="white" stroke="#e5e7eb" stroke-width="1"/>
  <circle cx="44" cy="166" r="8" fill="#9ca3af"/>
  <text x="64" y="171" fill="#6b7280" font-family="Inter, sans-serif" font-size="14">Search favorites...</text>
  
  <!-- Sort Button -->
  <rect x="332" y="144" width="38" height="44" rx="22" fill="white" stroke="#e5e7eb" stroke-width="1"/>
  <rect x="342" y="158" width="18" height="2" fill="#6b7280"/>
  <rect x="342" y="163" width="18" height="2" fill="#6b7280"/>
  <rect x="342" y="168" width="18" height="2" fill="#6b7280"/>
  <rect x="342" y="173" width="18" height="2" fill="#6b7280"/>
  
  <!-- Quick Stats -->
  <rect x="20" y="208" width="350" height="56" rx="12" fill="white" stroke="#e5e7eb" stroke-width="1"/>
  
  <!-- Recently Added -->
  <rect x="32" y="220" width="102" height="32" rx="8" fill="#eff6ff"/>
  <circle cx="48" cy="236" r="8" fill="#0284c7"/>
  <text x="52" y="240" fill="#0284c7" font-family="Inter, sans-serif" font-size="10">+</text>
  <text x="64" y="232" fill="#0284c7" font-family="Inter, sans-serif" font-size="12" font-weight="600">Recently Added</text>
  <text x="64" y="246" fill="#0284c7" font-family="Inter, sans-serif" font-size="12">7 hymns</text>
  
  <!-- Most Played -->
  <rect x="144" y="220" width="102" height="32" rx="8" fill="#f0fdf4"/>
  <circle cx="160" cy="236" r="8" fill="#16a34a"/>
  <text x="164" y="240" fill="#16a34a" font-family="Inter, sans-serif" font-size="10">♪</text>
  <text x="176" y="232" fill="#16a34a" font-family="Inter, sans-serif" font-size="12" font-weight="600">Most Played</text>
  <text x="176" y="246" fill="#16a34a" font-family="Inter, sans-serif" font-size="12">5 hymns</text>
  
  <!-- Collections -->
  <rect x="256" y="220" width="102" height="32" rx="8" fill="#fef3c7"/>
  <circle cx="272" cy="236" r="8" fill="#f59e0b"/>
  <text x="276" y="240" fill="#f59e0b" font-family="Inter, sans-serif" font-size="10">📚</text>
  <text x="288" y="232" fill="#f59e0b" font-family="Inter, sans-serif" font-size="12" font-weight="600">Collections</text>
  <text x="288" y="246" fill="#f59e0b" font-family="Inter, sans-serif" font-size="12">3 active</text>
  
  <!-- Category Filters -->
  <rect x="0" y="284" width="390" height="48" fill="white" stroke="#e5e7eb" stroke-width="1"/>
  
  <!-- All filter (active) -->
  <rect x="20" y="296" width="55" height="32" rx="16" fill="#0284c7"/>
  <text x="32" y="315" fill="white" font-family="Inter, sans-serif" font-size="14" font-weight="600">All (24)</text>
  
  <rect x="87" y="296" width="65" height="32" rx="16" fill="white" stroke="#e5e7eb" stroke-width="1"/>
  <text x="100" y="315" fill="#6b7280" font-family="Inter, sans-serif" font-size="14">SDAH (12)</text>
  
  <rect x="164" y="296" width="50" height="32" rx="16" fill="white" stroke="#e5e7eb" stroke-width="1"/>
  <text x="175" y="315" fill="#6b7280" font-family="Inter, sans-serif" font-size="14">CH (8)</text>
  
  <rect x="226" y="296" width="50" height="32" rx="16" fill="white" stroke="#e5e7eb" stroke-width="1"/>
  <text x="237" y="315" fill="#6b7280" font-family="Inter, sans-serif" font-size="14">CS (4)</text>
  
  <rect x="288" y="296" width="82" height="32" rx="16" fill="white" stroke="#e5e7eb" stroke-width="1"/>
  <text x="310" y="315" fill="#6b7280" font-family="Inter, sans-serif" font-size="14">Grace (6)</text>
  
  <!-- Favorites List -->
  <text x="20" y="358" fill="#1e3a8a" font-family="Inter, sans-serif" font-size="16" font-weight="600">Your Favorites</text>
  <text x="20" y="376" fill="#6b7280" font-family="Inter, sans-serif" font-size="14">Sorted by recently added</text>
  
  <!-- Favorite Item 1 -->
  <rect x="20" y="390" width="350" height="80" rx="8" fill="white" stroke="#e5e7eb" stroke-width="1"/>
  <rect x="32" y="402" width="40" height="56" rx="4" fill="#1e3a8a"/>
  <text x="45" y="421" fill="white" font-family="Inter, sans-serif" font-size="10" font-weight="700" text-anchor="middle">123</text>
  <text x="45" y="436" fill="#a5b4fc" font-family="Inter, sans-serif" font-size="8" text-anchor="middle">SDAH</text>
  <text x="84" y="416" fill="#1e3a8a" font-family="Inter, sans-serif" font-size="16" font-weight="600">Amazing Grace</text>
  <text x="84" y="434" fill="#6b7280" font-family="Inter, sans-serif" font-size="14">John Newton • NEW BRITAIN</text>
  <text x="84" y="452" fill="#6b7280" font-family="Inter, sans-serif" font-size="12">Added 2 days ago</text>
  
  <!-- Favorite heart (filled) -->
  <path d="M330 406 L336 412 L342 406 C344 404 344 401 342 399 C340 397 336 397 334 399 L336 401 L338 399 C340 397 344 397 346 399 C348 401 348 404 346 406 L340 412 L334 406 Z" fill="#dc2626"/>
  
  <!-- Play count -->
  <circle cx="310" cy="408" r="8" fill="#f3f4f6"/>
  <text x="306" y="412" fill="#6b7280" font-family="Inter, sans-serif" font-size="10">12</text>
  
  <!-- Favorite Item 2 -->
  <rect x="20" y="486" width="350" height="80" rx="8" fill="white" stroke="#e5e7eb" stroke-width="1"/>
  <rect x="32" y="498" width="40" height="56" rx="4" fill="#800020"/>
  <text x="45" y="517" fill="white" font-family="Inter, sans-serif" font-size="10" font-weight="700" text-anchor="middle">87</text>
  <text x="45" y="532" fill="#fca5a5" font-family="Inter, sans-serif" font-size="8" text-anchor="middle">CH</text>
  <text x="84" y="512" fill="#1e3a8a" font-family="Inter, sans-serif" font-size="16" font-weight="600">How Great Thou Art</text>
  <text x="84" y="530" fill="#6b7280" font-family="Inter, sans-serif" font-size="14">Stuart K. Hine • O STORE GUD</text>
  <text x="84" y="548" fill="#6b7280" font-family="Inter, sans-serif" font-size="12">Added 1 week ago</text>
  
  <!-- Favorite heart (filled) -->
  <path d="M330 502 L336 508 L342 502 C344 500 344 497 342 495 C340 493 336 493 334 495 L336 497 L338 495 C340 493 344 493 346 495 C348 497 348 500 346 502 L340 508 L334 502 Z" fill="#dc2626"/>
  
  <!-- Play count -->
  <circle cx="310" cy="504" r="8" fill="#f3f4f6"/>
  <text x="308" y="508" fill="#6b7280" font-family="Inter, sans-serif" font-size="10">8</text>
  
  <!-- Favorite Item 3 -->
  <rect x="20" y="582" width="350" height="80" rx="8" fill="white" stroke="#e5e7eb" stroke-width="1"/>
  <rect x="32" y="594" width="40" height="56" rx="4" fill="#16a34a"/>
  <text x="45" y="613" fill="white" font-family="Inter, sans-serif" font-size="10" font-weight="700" text-anchor="middle">456</text>
  <text x="45" y="628" fill="#bbf7d0" font-family="Inter, sans-serif" font-size="8" text-anchor="middle">CS</text>
  <text x="84" y="608" fill="#1e3a8a" font-family="Inter, sans-serif" font-size="16" font-weight="600">Great Is Thy Faithfulness</text>
  <text x="84" y="626" fill="#6b7280" font-family="Inter, sans-serif" font-size="14">Thomas O. Chisholm • FAITHFULNESS</text>
  <text x="84" y="644" fill="#6b7280" font-family="Inter, sans-serif" font-size="12">Added 2 weeks ago</text>
  
  <!-- Favorite heart (filled) -->
  <path d="M330 598 L336 604 L342 598 C344 596 344 593 342 591 C340 589 336 589 334 591 L336 593 L338 591 C340 589 344 589 346 591 C348 593 348 596 346 598 L340 604 L334 598 Z" fill="#dc2626"/>
  
  <!-- Play count -->
  <circle cx="310" cy="600" r="8" fill="#f3f4f6"/>
  <text x="308" y="604" fill="#6b7280" font-family="Inter, sans-serif" font-size="10">5</text>
  
  <!-- Load More Button -->
  <rect x="20" y="678" width="350" height="40" rx="20" fill="white" stroke="#0284c7" stroke-width="1"/>
  <text x="195" y="701" fill="#0284c7" font-family="Inter, sans-serif" font-size="14" font-weight="500" text-anchor="middle">Show More Favorites</text>
  
  <!-- Bottom Navigation with new 5-tab structure -->
  <rect x="0" y="760" width="390" height="84" fill="white" stroke="#e5e7eb" stroke-width="1"/>
  
  <!-- Home Tab -->
  <circle cx="39" cy="785" r="12" fill="#9ca3af"/>
  <path d="M33 785 L39 779 L45 785 L42 785 L42 791 L36 791 L36 785 Z" fill="white"/>
  <text x="27" y="805" fill="#6b7280" font-family="Inter, sans-serif" font-size="11">Home</text>
  
  <!-- Browse Tab -->
  <circle cx="117" cy="785" r="12" fill="#9ca3af"/>
  <rect x="111" y="779" width="12" height="2" fill="white"/>
  <rect x="111" y="783" width="12" height="2" fill="white"/>
  <rect x="111" y="787" width="12" height="2" fill="white"/>
  <rect x="111" y="791" width="12" height="2" fill="white"/>
  <text x="105" y="805" fill="#6b7280" font-family="Inter, sans-serif" font-size="11">Browse</text>
  
  <!-- Search Tab -->
  <circle cx="195" cy="785" r="12" fill="#9ca3af"/>
  <circle cx="193" cy="783" r="5" fill="none" stroke="white" stroke-width="2"/>
  <path d="M197 787 L201 791" stroke="white" stroke-width="2"/>
  <text x="185" y="805" fill="#6b7280" font-family="Inter, sans-serif" font-size="11">Search</text>
  
  <!-- Favorites Tab (Active) -->
  <rect x="234" y="760" width="78" height="84" fill="#fef2f2"/>
  <circle cx="273" cy="785" r="12" fill="#dc2626"/>
  <path d="M267 785 L273 779 L279 785 C281 787 281 790 279 792 C277 794 273 794 271 792 L273 790 L275 792 C277 794 281 794 283 792 C285 790 285 787 283 785 L277 779 L271 785 Z" fill="white"/>
  <text x="255" y="805" fill="#dc2626" font-family="Inter, sans-serif" font-size="11" font-weight="600">Favorites</text>
  
  <!-- More Tab -->
  <circle cx="351" cy="785" r="12" fill="#9ca3af"/>
  <circle cx="347" cy="781" r="1" fill="white"/>
  <circle cx="351" cy="781" r="1" fill="white"/>
  <circle cx="355" cy="781" r="1" fill="white"/>
  <circle cx="347" cy="785" r="1" fill="white"/>
  <circle cx="351" cy="785" r="1" fill="white"/>
  <circle cx="355" cy="785" r="1" fill="white"/>
  <circle cx="347" cy="789" r="1" fill="white"/>
  <circle cx="351" cy="789" r="1" fill="white"/>
  <circle cx="355" cy="789" r="1" fill="white"/>
  <text x="343" y="805" fill="#6b7280" font-family="Inter, sans-serif" font-size="11">More</text>
  
  <!-- Favorites count badge -->
  <circle cx="285" cy="773" r="8" fill="#dc2626"/>
  <text x="281" y="777" fill="white" font-family="Inter, sans-serif" font-size="10" font-weight="700">24</text>
</svg>