<?xml version="1.0" encoding="UTF-8"?>
<svg width="390" height="844" viewBox="0 0 390 844" fill="none" xmlns="http://www.w3.org/2000/svg">
  <!-- Background -->
  <rect width="390" height="844" fill="#fefce8"/>
  
  <!-- Status Bar -->
  <rect width="390" height="44" fill="#1e3a8a"/>
  <text x="20" y="30" fill="white" font-family="Inter, sans-serif" font-size="14" font-weight="600">9:41</text>
  <text x="350" y="30" fill="white" font-family="Inter, sans-serif" font-size="14">100%</text>
  
  <!-- Header -->
  <rect x="0" y="44" width="390" height="80" fill="#1e3a8a"/>
  <text x="20" y="95" fill="white" font-family="Inter, sans-serif" font-size="24" font-weight="700">Recently Viewed</text>
  <text x="20" y="115" fill="#a5b4fc" font-family="Inter, sans-serif" font-size="14">Your hymn history</text>
  
  <!-- Clock icon in header -->
  <circle cx="348" cy="84" r="12" fill="#4338ca"/>
  <circle cx="348" cy="84" r="8" fill="none" stroke="white" stroke-width="2"/>
  <path d="M348 80 L348 84 L351 87" stroke="white" stroke-width="2" fill="none"/>
  
  <!-- Time Filter Bar -->
  <rect x="0" y="124" width="390" height="56" fill="white" stroke="#e5e7eb" stroke-width="1"/>
  
  <!-- Time filters -->
  <rect x="20" y="140" width="55" height="32" rx="16" fill="#0284c7"/>
  <text x="32" y="159" fill="white" font-family="Inter, sans-serif" font-size="14" font-weight="600">Today</text>
  
  <rect x="87" y="140" width="75" height="32" rx="16" fill="white" stroke="#e5e7eb" stroke-width="1"/>
  <text x="108" y="159" fill="#6b7280" font-family="Inter, sans-serif" font-size="14">This Week</text>
  
  <rect x="174" y="140" width="80" height="32" rx="16" fill="white" stroke="#e5e7eb" stroke-width="1"/>
  <text x="195" y="159" fill="#6b7280" font-family="Inter, sans-serif" font-size="14">This Month</text>
  
  <rect x="266" y="140" width="60" height="32" rx="16" fill="white" stroke="#e5e7eb" stroke-width="1"/>
  <text x="285" y="159" fill="#6b7280" font-family="Inter, sans-serif" font-size="14">Clear</text>
  
  <rect x="338" y="140" width="32" height="32" rx="16" fill="white" stroke="#e5e7eb" stroke-width="1"/>
  <circle cx="354" cy="156" r="4" fill="#6b7280"/>
  <circle cx="354" cy="156" r="2" fill="white"/>
  <circle cx="354" cy="156" r="1" fill="#6b7280"/>
  
  <!-- Quick Stats -->
  <rect x="20" y="200" width="350" height="44" rx="8" fill="#f8fafc"/>
  <text x="32" y="220" fill="#1e3a8a" font-family="Inter, sans-serif" font-size="14" font-weight="600">18 hymns viewed today</text>
  <text x="32" y="234" fill="#6b7280" font-family="Inter, sans-serif" font-size="12">Average 3.2 views per hymn</text>
  
  <!-- Today Section -->
  <text x="20" y="272" fill="#1e3a8a" font-family="Inter, sans-serif" font-size="16" font-weight="600">Today</text>
  <text x="20" y="290" fill="#6b7280" font-family="Inter, sans-serif" font-size="14">Most recent activity</text>
  
  <!-- Recent Item 1 -->
  <rect x="20" y="304" width="350" height="72" rx="8" fill="white" stroke="#e5e7eb" stroke-width="1"/>
  <rect x="32" y="316" width="40" height="48" rx="4" fill="#1e3a8a"/>
  <text x="45" y="332" fill="white" font-family="Inter, sans-serif" font-size="10" font-weight="700" text-anchor="middle">123</text>
  <text x="45" y="344" fill="#a5b4fc" font-family="Inter, sans-serif" font-size="8" text-anchor="middle">SDAH</text>
  <text x="84" y="330" fill="#1e3a8a" font-family="Inter, sans-serif" font-size="16" font-weight="600">Amazing Grace</text>
  <text x="84" y="346" fill="#6b7280" font-family="Inter, sans-serif" font-size="14">John Newton</text>
  <text x="84" y="360" fill="#0284c7" font-family="Inter, sans-serif" font-size="12" font-weight="500">2 min ago • 12 views</text>
  
  <!-- View count badge -->
  <circle cx="334" cy="322" r="10" fill="#eff6ff"/>
  <text x="330" y="326" fill="#0284c7" font-family="Inter, sans-serif" font-size="10" font-weight="600">12</text>
  
  <!-- Download indicator -->
  <rect x="320" y="346" width="20" height="16" rx="8" fill="#16a34a"/>
  <circle cx="327" cy="354" r="2" fill="white"/>
  <text x="327" y="357" fill="white" font-family="Inter, sans-serif" font-size="8" text-anchor="middle">↓</text>
  
  <!-- Recent Item 2 -->
  <rect x="20" y="388" width="350" height="72" rx="8" fill="white" stroke="#e5e7eb" stroke-width="1"/>
  <rect x="32" y="400" width="40" height="48" rx="4" fill="#800020"/>
  <text x="45" y="416" fill="white" font-family="Inter, sans-serif" font-size="10" font-weight="700" text-anchor="middle">87</text>
  <text x="45" y="428" fill="#fca5a5" font-family="Inter, sans-serif" font-size="8" text-anchor="middle">CH</text>
  <text x="84" y="414" fill="#1e3a8a" font-family="Inter, sans-serif" font-size="16" font-weight="600">How Great Thou Art</text>
  <text x="84" y="430" fill="#6b7280" font-family="Inter, sans-serif" font-size="14">Stuart K. Hine</text>
  <text x="84" y="444" fill="#0284c7" font-family="Inter, sans-serif" font-size="12" font-weight="500">15 min ago • 8 views</text>
  
  <!-- View count badge -->
  <circle cx="334" cy="406" r="10" fill="#eff6ff"/>
  <text x="332" y="410" fill="#0284c7" font-family="Inter, sans-serif" font-size="10" font-weight="600">8</text>
  
  <!-- Recent Item 3 -->
  <rect x="20" y="472" width="350" height="72" rx="8" fill="white" stroke="#e5e7eb" stroke-width="1"/>
  <rect x="32" y="484" width="40" height="48" rx="4" fill="#16a34a"/>
  <text x="45" y="500" fill="white" font-family="Inter, sans-serif" font-size="10" font-weight="700" text-anchor="middle">456</text>
  <text x="45" y="512" fill="#bbf7d0" font-family="Inter, sans-serif" font-size="8" text-anchor="middle">CS</text>
  <text x="84" y="498" fill="#1e3a8a" font-family="Inter, sans-serif" font-size="16" font-weight="600">Great Is Thy Faithfulness</text>
  <text x="84" y="514" fill="#6b7280" font-family="Inter, sans-serif" font-size="14">Thomas O. Chisholm</text>
  <text x="84" y="528" fill="#0284c7" font-family="Inter, sans-serif" font-size="12" font-weight="500">1 hour ago • 5 views</text>
  
  <!-- View count badge -->
  <circle cx="334" cy="490" r="10" fill="#eff6ff"/>
  <text x="332" y="494" fill="#0284c7" font-family="Inter, sans-serif" font-size="10" font-weight="600">5</text>
  
  <!-- Favorite heart -->
  <path d="M320 506 L324 510 L328 506 C329 505 329 503 328 502 C327 501 324 501 323 502 L324 503 L325 502 C327 501 329 501 330 502 C331 503 331 505 330 506 L326 510 L322 506 Z" fill="#dc2626"/>
  
  <!-- Yesterday Section -->
  <text x="20" y="572" fill="#1e3a8a" font-family="Inter, sans-serif" font-size="16" font-weight="600">Yesterday</text>
  <text x="20" y="590" fill="#6b7280" font-family="Inter, sans-serif" font-size="14">5 hymns viewed</text>
  
  <!-- Yesterday Item -->
  <rect x="20" y="604" width="350" height="72" rx="8" fill="white" stroke="#e5e7eb" stroke-width="1"/>
  <rect x="32" y="616" width="40" height="48" rx="4" fill="#7c2d12"/>
  <text x="45" y="632" fill="white" font-family="Inter, sans-serif" font-size="10" font-weight="700" text-anchor="middle">234</text>
  <text x="45" y="644" fill="#fed7aa" font-family="Inter, sans-serif" font-size="8" text-anchor="middle">MH</text>
  <text x="84" y="630" fill="#1e3a8a" font-family="Inter, sans-serif" font-size="16" font-weight="600">Rock of Ages</text>
  <text x="84" y="646" fill="#6b7280" font-family="Inter, sans-serif" font-size="14">Augustus M. Toplady</text>
  <text x="84" y="660" fill="#6b7280" font-family="Inter, sans-serif" font-size="12">Yesterday 3:45 PM • 3 views</text>
  
  <!-- View count badge -->
  <circle cx="334" cy="622" r="10" fill="#f3f4f6"/>
  <text x="332" y="626" fill="#6b7280" font-family="Inter, sans-serif" font-size="10" font-weight="600">3</text>
  
  <!-- Load More Button -->
  <rect x="20" y="692" width="350" height="40" rx="20" fill="white" stroke="#0284c7" stroke-width="1"/>
  <text x="195" y="715" fill="#0284c7" font-family="Inter, sans-serif" font-size="14" font-weight="500" text-anchor="middle">View Full History</text>
  
  <!-- Bottom Navigation with new 5-tab structure -->
  <rect x="0" y="760" width="390" height="84" fill="white" stroke="#e5e7eb" stroke-width="1"/>
  
  <!-- Home Tab -->
  <circle cx="39" cy="785" r="12" fill="#9ca3af"/>
  <path d="M33 785 L39 779 L45 785 L42 785 L42 791 L36 791 L36 785 Z" fill="white"/>
  <text x="27" y="805" fill="#6b7280" font-family="Inter, sans-serif" font-size="11">Home</text>
  
  <!-- Browse Tab -->
  <circle cx="117" cy="785" r="12" fill="#9ca3af"/>
  <rect x="111" y="779" width="12" height="2" fill="white"/>
  <rect x="111" y="783" width="12" height="2" fill="white"/>
  <rect x="111" y="787" width="12" height="2" fill="white"/>
  <rect x="111" y="791" width="12" height="2" fill="white"/>
  <text x="105" y="805" fill="#6b7280" font-family="Inter, sans-serif" font-size="11">Browse</text>
  
  <!-- Search Tab -->
  <circle cx="195" cy="785" r="12" fill="#9ca3af"/>
  <circle cx="193" cy="783" r="5" fill="none" stroke="white" stroke-width="2"/>
  <path d="M197 787 L201 791" stroke="white" stroke-width="2"/>
  <text x="185" y="805" fill="#6b7280" font-family="Inter, sans-serif" font-size="11">Search</text>
  
  <!-- Favorites Tab -->
  <circle cx="273" cy="785" r="12" fill="#9ca3af"/>
  <path d="M267 785 L273 779 L279 785 C281 787 281 790 279 792 C277 794 273 794 271 792 L273 790 L275 792 C277 794 281 794 283 792 C285 790 285 787 283 785 L277 779 L271 785 Z" fill="white"/>
  <text x="255" y="805" fill="#6b7280" font-family="Inter, sans-serif" font-size="11">Favorites</text>
  
  <!-- More Tab (Active - Recently Viewed is under More) -->
  <rect x="312" y="760" width="78" height="84" fill="#eff6ff"/>
  <circle cx="351" cy="785" r="12" fill="#0284c7"/>
  <circle cx="347" cy="781" r="1" fill="white"/>
  <circle cx="351" cy="781" r="1" fill="white"/>
  <circle cx="355" cy="781" r="1" fill="white"/>
  <circle cx="347" cy="785" r="1" fill="white"/>
  <circle cx="351" cy="785" r="1" fill="white"/>
  <circle cx="355" cy="785" r="1" fill="white"/>
  <circle cx="347" cy="789" r="1" fill="white"/>
  <circle cx="351" cy="789" r="1" fill="white"/>
  <circle cx="355" cy="789" r="1" fill="white"/>
  <text x="343" y="805" fill="#0284c7" font-family="Inter, sans-serif" font-size="11" font-weight="600">More</text>
  
  <!-- Recent views badge -->
  <circle cx="363" cy="773" r="8" fill="#0284c7"/>
  <text x="359" y="777" fill="white" font-family="Inter, sans-serif" font-size="10" font-weight="700">18</text>
</svg>