<?xml version="1.0" encoding="UTF-8"?>
<svg width="390" height="844" viewBox="0 0 390 844" fill="none" xmlns="http://www.w3.org/2000/svg">
  <!-- Background -->
  <rect width="390" height="844" fill="#fefce8"/>
  
  <!-- Status Bar -->
  <rect width="390" height="44" fill="#1e3a8a"/>
  <text x="20" y="30" fill="white" font-family="Inter, sans-serif" font-size="14" font-weight="600">9:41</text>
  <text x="350" y="30" fill="white" font-family="Inter, sans-serif" font-size="14">100%</text>
  
  <!-- Header with global search -->
  <rect x="0" y="44" width="390" height="100" fill="#1e3a8a"/>
  <text x="20" y="85" fill="white" font-family="Inter, sans-serif" font-size="24" font-weight="700">Advent Hymnals</text>
  <text x="20" y="105" fill="#a5b4fc" font-family="Inter, sans-serif" font-size="14">Welcome back, Brian</text>
  
  <!-- Global Search Bar -->
  <rect x="20" y="118" width="290" height="44" rx="22" fill="white" stroke="#e5e7eb" stroke-width="1"/>
  <circle cx="44" cy="140" r="8" fill="#9ca3af"/>
  <text x="64" y="145" fill="#6b7280" font-family="Inter, sans-serif" font-size="14">Search all hymns...</text>
  
  <!-- Voice Search Button -->
  <rect x="322" y="118" width="48" height="44" rx="22" fill="white" stroke="#e5e7eb" stroke-width="1"/>
  <circle cx="346" cy="140" r="8" fill="#0284c7"/>
  <path d="M342 137 L342 143 L350 143 L350 137 C350 135 348 133 346 133 C344 133 342 135 342 137 Z" fill="white"/>
  <rect x="345" y="145" width="2" height="4" fill="white"/>
  
  <!-- Quick Stats Card -->
  <rect x="20" y="184" width="350" height="60" rx="12" fill="white" stroke="#e5e7eb" stroke-width="1"/>
  <text x="32" y="206" fill="#1e3a8a" font-family="Inter, sans-serif" font-size="16" font-weight="600">Your Activity</text>
  <text x="32" y="224" fill="#6b7280" font-family="Inter, sans-serif" font-size="14">24 favorites • 18 viewed today • 3 downloaded</text>
  
  <!-- Activity indicators -->
  <circle cx="320" cy="204" r="8" fill="#dc2626"/>
  <text x="316" y="208" fill="white" font-family="Inter, sans-serif" font-size="10" font-weight="600">24</text>
  <circle cx="340" cy="204" r="8" fill="#0284c7"/>
  <text x="336" y="208" fill="white" font-family="Inter, sans-serif" font-size="10" font-weight="600">18</text>
  <circle cx="320" cy="224" r="8" fill="#16a34a"/>
  <text x="318" y="228" fill="white" font-family="Inter, sans-serif" font-size="10" font-weight="600">3</text>
  
  <!-- Recent Favorites Section -->
  <text x="20" y="274" fill="#1e3a8a" font-family="Inter, sans-serif" font-size="18" font-weight="600">Recent Favorites</text>
  <text x="280" y="274" fill="#0284c7" font-family="Inter, sans-serif" font-size="14" font-weight="500">View All</text>
  
  <!-- Favorite Item 1 -->
  <rect x="20" y="288" width="350" height="64" rx="8" fill="white" stroke="#e5e7eb" stroke-width="1"/>
  <rect x="32" y="300" width="32" height="40" rx="4" fill="#1e3a8a"/>
  <text x="41" y="316" fill="white" font-family="Inter, sans-serif" font-size="9" font-weight="700" text-anchor="middle">123</text>
  <text x="41" y="328" fill="#a5b4fc" font-family="Inter, sans-serif" font-size="8" text-anchor="middle">SDAH</text>
  <text x="76" y="312" fill="#1e3a8a" font-family="Inter, sans-serif" font-size="14" font-weight="600">Amazing Grace</text>
  <text x="76" y="328" fill="#6b7280" font-family="Inter, sans-serif" font-size="12">John Newton • Added 2 days ago</text>
  
  <!-- Favorite heart -->
  <path d="M330 306 L334 310 L338 306 C339 305 339 303 338 302 C337 301 334 301 333 302 L334 303 L335 302 C337 301 339 301 340 302 C341 303 341 305 340 306 L336 310 L332 306 Z" fill="#dc2626"/>
  
  <!-- Play button -->
  <circle cx="354" cy="320" r="12" fill="#0284c7"/>
  <path d="M351 317 L351 323 L357 320 Z" fill="white"/>
  
  <!-- Favorite Item 2 -->
  <rect x="20" y="364" width="350" height="64" rx="8" fill="white" stroke="#e5e7eb" stroke-width="1"/>
  <rect x="32" y="376" width="32" height="40" rx="4" fill="#800020"/>
  <text x="41" y="392" fill="white" font-family="Inter, sans-serif" font-size="9" font-weight="700" text-anchor="middle">87</text>
  <text x="41" y="404" fill="#fca5a5" font-family="Inter, sans-serif" font-size="8" text-anchor="middle">CH</text>
  <text x="76" y="388" fill="#1e3a8a" font-family="Inter, sans-serif" font-size="14" font-weight="600">How Great Thou Art</text>
  <text x="76" y="404" fill="#6b7280" font-family="Inter, sans-serif" font-size="12">Stuart K. Hine • Added 1 week ago</text>
  
  <!-- Favorite heart -->
  <path d="M330 382 L334 386 L338 382 C339 381 339 379 338 378 C337 377 334 377 333 378 L334 379 L335 378 C337 377 339 377 340 378 C341 379 341 381 340 382 L336 386 L332 382 Z" fill="#dc2626"/>
  
  <!-- Play button -->
  <circle cx="354" cy="396" r="12" fill="#0284c7"/>
  <path d="M351 393 L351 399 L357 396 Z" fill="white"/>
  
  <!-- Recently Viewed Section -->
  <text x="20" y="458" fill="#1e3a8a" font-family="Inter, sans-serif" font-size="18" font-weight="600">Recently Viewed</text>
  <text x="280" y="458" fill="#0284c7" font-family="Inter, sans-serif" font-size="14" font-weight="500">View All</text>
  
  <!-- Recent Item 1 -->
  <rect x="20" y="472" width="350" height="64" rx="8" fill="white" stroke="#e5e7eb" stroke-width="1"/>
  <rect x="32" y="484" width="32" height="40" rx="4" fill="#16a34a"/>
  <text x="41" y="500" fill="white" font-family="Inter, sans-serif" font-size="9" font-weight="700" text-anchor="middle">456</text>
  <text x="41" y="512" fill="#bbf7d0" font-family="Inter, sans-serif" font-size="8" text-anchor="middle">CS</text>
  <text x="76" y="496" fill="#1e3a8a" font-family="Inter, sans-serif" font-size="14" font-weight="600">Great Is Thy Faithfulness</text>
  <text x="76" y="512" fill="#6b7280" font-family="Inter, sans-serif" font-size="12">Thomas O. Chisholm • 2 min ago</text>
  
  <!-- View count -->
  <circle cx="330" cy="492" r="10" fill="#eff6ff"/>
  <text x="326" y="496" fill="#0284c7" font-family="Inter, sans-serif" font-size="10" font-weight="600">12</text>
  
  <!-- Play button -->
  <circle cx="354" cy="504" r="12" fill="#0284c7"/>
  <path d="M351 501 L351 507 L357 504 Z" fill="white"/>
  
  <!-- Recent Item 2 -->
  <rect x="20" y="548" width="350" height="64" rx="8" fill="white" stroke="#e5e7eb" stroke-width="1"/>
  <rect x="32" y="560" width="32" height="40" rx="4" fill="#7c2d12"/>
  <text x="41" y="576" fill="white" font-family="Inter, sans-serif" font-size="9" font-weight="700" text-anchor="middle">234</text>
  <text x="41" y="588" fill="#fed7aa" font-family="Inter, sans-serif" font-size="8" text-anchor="middle">MH</text>
  <text x="76" y="572" fill="#1e3a8a" font-family="Inter, sans-serif" font-size="14" font-weight="600">Rock of Ages</text>
  <text x="76" y="588" fill="#6b7280" font-family="Inter, sans-serif" font-size="12">Augustus M. Toplady • 15 min ago</text>
  
  <!-- View count -->
  <circle cx="330" cy="568" r="10" fill="#f3f4f6"/>
  <text x="328" y="572" fill="#6b7280" font-family="Inter, sans-serif" font-size="10" font-weight="600">3</text>
  
  <!-- Play button -->
  <circle cx="354" cy="580" r="12" fill="#0284c7"/>
  <path d="M351 577 L351 583 L357 580 Z" fill="white"/>
  
  <!-- Quick Actions -->
  <text x="20" y="642" fill="#1e3a8a" font-family="Inter, sans-serif" font-size="18" font-weight="600">Quick Actions</text>
  
  <!-- Action Buttons -->
  <rect x="20" y="656" width="104" height="52" rx="12" fill="white" stroke="#e5e7eb" stroke-width="1"/>
  <circle cx="45" cy="675" r="12" fill="#0284c7"/>
  <rect x="39" y="669" width="12" height="2" fill="white"/>
  <rect x="39" y="673" width="12" height="2" fill="white"/>
  <rect x="39" y="677" width="12" height="2" fill="white"/>
  <rect x="39" y="681" width="12" height="2" fill="white"/>
  <text x="65" y="679" fill="#1e3a8a" font-family="Inter, sans-serif" font-size="12" font-weight="600">Browse</text>
  <text x="65" y="693" fill="#6b7280" font-family="Inter, sans-serif" font-size="10">Collections</text>
  
  <rect x="136" y="656" width="104" height="52" rx="12" fill="white" stroke="#e5e7eb" stroke-width="1"/>
  <circle cx="161" cy="675" r="12" fill="#dc2626"/>
  <path d="M155 675 L161 669 L167 675 C169 677 169 680 167 682 C165 684 161 684 159 682 L161 680 L163 682 C165 684 169 684 171 682 C173 680 173 677 171 675 L165 669 L159 675 Z" fill="white"/>
  <text x="181" y="679" fill="#1e3a8a" font-family="Inter, sans-serif" font-size="12" font-weight="600">Favorites</text>
  <text x="181" y="693" fill="#6b7280" font-family="Inter, sans-serif" font-size="10">24 saved</text>
  
  <rect x="252" y="656" width="118" height="52" rx="12" fill="white" stroke="#e5e7eb" stroke-width="1"/>
  <circle cx="281" cy="675" r="12" fill="#16a34a"/>
  <path d="M277 671 L277 679 M277 679 L281 675 M277 679 L285 675" stroke="white" stroke-width="2" fill="none"/>
  <text x="301" y="679" fill="#1e3a8a" font-family="Inter, sans-serif" font-size="12" font-weight="600">Downloads</text>
  <text x="301" y="693" fill="#6b7280" font-family="Inter, sans-serif" font-size="10">3 offline</text>
  
  <!-- Bottom Navigation with new 5-tab structure -->
  <rect x="0" y="760" width="390" height="84" fill="white" stroke="#e5e7eb" stroke-width="1"/>
  
  <!-- Home Tab (Active) -->
  <rect x="0" y="760" width="78" height="84" fill="#eff6ff"/>
  <circle cx="39" cy="785" r="12" fill="#0284c7"/>
  <path d="M33 785 L39 779 L45 785 L42 785 L42 791 L36 791 L36 785 Z" fill="white"/>
  <text x="27" y="805" fill="#0284c7" font-family="Inter, sans-serif" font-size="11" font-weight="600">Home</text>
  
  <!-- Browse Tab -->
  <circle cx="117" cy="785" r="12" fill="#9ca3af"/>
  <rect x="111" y="779" width="12" height="2" fill="white"/>
  <rect x="111" y="783" width="12" height="2" fill="white"/>
  <rect x="111" y="787" width="12" height="2" fill="white"/>
  <rect x="111" y="791" width="12" height="2" fill="white"/>
  <text x="105" y="805" fill="#6b7280" font-family="Inter, sans-serif" font-size="11">Browse</text>
  
  <!-- Search Tab -->
  <circle cx="195" cy="785" r="12" fill="#9ca3af"/>
  <circle cx="193" cy="783" r="5" fill="none" stroke="white" stroke-width="2"/>
  <path d="M197 787 L201 791" stroke="white" stroke-width="2"/>
  <text x="185" y="805" fill="#6b7280" font-family="Inter, sans-serif" font-size="11">Search</text>
  
  <!-- Favorites Tab -->
  <circle cx="273" cy="785" r="12" fill="#9ca3af"/>
  <path d="M267 785 L273 779 L279 785 C281 787 281 790 279 792 C277 794 273 794 271 792 L273 790 L275 792 C277 794 281 794 283 792 C285 790 285 787 283 785 L277 779 L271 785 Z" fill="white"/>
  <text x="255" y="805" fill="#6b7280" font-family="Inter, sans-serif" font-size="11">Favorites</text>
  
  <!-- Favorites count badge -->
  <circle cx="285" cy="773" r="8" fill="#dc2626"/>
  <text x="281" y="777" fill="white" font-family="Inter, sans-serif" font-size="10" font-weight="700">24</text>
  
  <!-- More Tab -->
  <circle cx="351" cy="785" r="12" fill="#9ca3af"/>
  <circle cx="347" cy="781" r="1" fill="white"/>
  <circle cx="351" cy="781" r="1" fill="white"/>
  <circle cx="355" cy="781" r="1" fill="white"/>
  <circle cx="347" cy="785" r="1" fill="white"/>
  <circle cx="351" cy="785" r="1" fill="white"/>
  <circle cx="355" cy="785" r="1" fill="white"/>
  <circle cx="347" cy="789" r="1" fill="white"/>
  <circle cx="351" cy="789" r="1" fill="white"/>
  <circle cx="355" cy="789" r="1" fill="white"/>
  <text x="343" y="805" fill="#6b7280" font-family="Inter, sans-serif" font-size="11">More</text>
</svg>