<?xml version="1.0" encoding="UTF-8"?>
<svg width="390" height="844" viewBox="0 0 390 844" fill="none" xmlns="http://www.w3.org/2000/svg">
  <!-- Background with slight overlay -->
  <rect width="390" height="844" fill="#fefce8" fill-opacity="0.9"/>
  
  <!-- Overlay Background -->
  <rect width="390" height="844" fill="rgba(30, 58, 138, 0.1)"/>
  
  <!-- Status Bar -->
  <rect width="390" height="44" fill="#1e3a8a"/>
  <text x="20" y="30" fill="white" font-family="Inter, sans-serif" font-size="14" font-weight="600">9:41</text>
  <text x="350" y="30" fill="white" font-family="Inter, sans-serif" font-size="14">100%</text>
  
  <!-- Search Modal -->
  <rect x="20" y="80" width="350" height="600" rx="16" fill="white" stroke="#e5e7eb" stroke-width="1" filter="drop-shadow(0 4px 6px rgba(0, 0, 0, 0.1))"/>
  
  <!-- Search Header -->
  <rect x="20" y="80" width="350" height="60" rx="16" fill="#f8fafc"/>
  <text x="40" y="110" fill="#1e3a8a" font-family="Inter, sans-serif" font-size="18" font-weight="600">Search All Hymns</text>
  
  <!-- Close Button -->
  <rect x="330" y="95" width="30" height="30" rx="15" fill="white" stroke="#e5e7eb" stroke-width="1"/>
  <path d="M340 340 L350 350 M340 350 L350 340" stroke="#6b7280" stroke-width="2" transform="translate(-5, -245)"/>
  
  <!-- Global Search Bar -->
  <rect x="40" y="160" width="310" height="48" rx="24" fill="white" stroke="#0284c7" stroke-width="2"/>
  <circle cx="68" cy="184" r="8" fill="#0284c7"/>
  <text x="88" y="189" fill="#1e3a8a" font-family="Inter, sans-serif" font-size="16">amaz</text>
  
  <!-- Search cursor -->
  <rect x="119" y="178" width="1" height="12" fill="#0284c7"/>
  
  <!-- Voice Search Button -->
  <rect x="310" y="168" width="32" height="32" rx="16" fill="#0284c7"/>
  <circle cx="326" cy="184" r="6" fill="white"/>
  <path d="M323 181 L323 187 L329 187 L329 181 C329 179 327 177 326 177 C325 177 323 179 323 181 Z" fill="#0284c7"/>
  <rect x="325" y="189" width="2" height="3" fill="white"/>
  
  <!-- Auto-complete Suggestions -->
  <rect x="40" y="224" width="310" height="160" rx="8" fill="#f8fafc" stroke="#e5e7eb" stroke-width="1"/>
  
  <!-- Suggestion 1 (highlighted) -->
  <rect x="48" y="232" width="294" height="32" rx="4" fill="#eff6ff"/>
  <circle cx="68" cy="248" r="6" fill="#0284c7"/>
  <text x="84" y="253" fill="#1e3a8a" font-family="Inter, sans-serif" font-size="14" font-weight="600">amaz</text>
  <text x="111" y="253" fill="#6b7280" font-family="Inter, sans-serif" font-size="14">ing grace</text>
  <text x="300" y="253" fill="#9ca3af" font-family="Inter, sans-serif" font-size="12">↵</text>
  
  <!-- Suggestion 2 -->
  <rect x="48" y="272" width="294" height="32" rx="4" fill="white"/>
  <circle cx="68" cy="288" r="6" fill="#9ca3af"/>
  <text x="84" y="293" fill="#1e3a8a" font-family="Inter, sans-serif" font-size="14" font-weight="600">amaz</text>
  <text x="111" y="293" fill="#6b7280" font-family="Inter, sans-serif" font-size="14">ed by grace</text>
  
  <!-- Suggestion 3 -->
  <rect x="48" y="312" width="294" height="32" rx="4" fill="white"/>
  <circle cx="68" cy="328" r="6" fill="#9ca3af"/>
  <text x="84" y="333" fill="#1e3a8a" font-family="Inter, sans-serif" font-size="14" font-weight="600">amaz</text>
  <text x="111" y="333" fill="#6b7280" font-family="Inter, sans-serif" font-size="14">ing love</text>
  
  <!-- Suggestion 4 -->
  <rect x="48" y="352" width="294" height="32" rx="4" fill="white"/>
  <circle cx="68" cy="368" r="6" fill="#9ca3af"/>
  <text x="84" y="373" fill="#1e3a8a" font-family="Inter, sans-serif" font-size="14" font-weight="600">amaz</text>
  <text x="111" y="373" fill="#6b7280" font-family="Inter, sans-serif" font-size="14">ing savior</text>
  
  <!-- Quick Filters -->
  <text x="40" y="414" fill="#1e3a8a" font-family="Inter, sans-serif" font-size="16" font-weight="600">Quick Filters</text>
  
  <!-- Filter Chips -->
  <rect x="40" y="426" width="60" height="28" rx="14" fill="#0284c7"/>
  <text x="55" y="443" fill="white" font-family="Inter, sans-serif" font-size="12" font-weight="600">Lyrics</text>
  
  <rect x="112" y="426" width="65" height="28" rx="14" fill="white" stroke="#e5e7eb" stroke-width="1"/>
  <text x="127" y="443" fill="#6b7280" font-family="Inter, sans-serif" font-size="12">Authors</text>
  
  <rect x="189" y="426" width="60" height="28" rx="14" fill="white" stroke="#e5e7eb" stroke-width="1"/>
  <text x="204" y="443" fill="#6b7280" font-family="Inter, sans-serif" font-size="12">Themes</text>
  
  <rect x="261" y="426" width="50" height="28" rx="14" fill="white" stroke="#e5e7eb" stroke-width="1"/>
  <text x="275" y="443" fill="#6b7280" font-family="Inter, sans-serif" font-size="12">Tunes</text>
  
  <!-- Collection Filters -->
  <rect x="40" y="466" width="55" height="28" rx="14" fill="white" stroke="#e5e7eb" stroke-width="1"/>
  <text x="52" y="483" fill="#6b7280" font-family="Inter, sans-serif" font-size="12">SDAH</text>
  
  <rect x="107" y="466" width="40" height="28" rx="14" fill="white" stroke="#e5e7eb" stroke-width="1"/>
  <text x="118" y="483" fill="#6b7280" font-family="Inter, sans-serif" font-size="12">CH</text>
  
  <rect x="159" y="466" width="40" height="28" rx="14" fill="white" stroke="#e5e7eb" stroke-width="1"/>
  <text x="170" y="483" fill="#6b7280" font-family="Inter, sans-serif" font-size="12">CS</text>
  
  <rect x="211" y="466" width="50" height="28" rx="14" fill="white" stroke="#e5e7eb" stroke-width="1"/>
  <text x="225" y="483" fill="#6b7280" font-family="Inter, sans-serif" font-size="12">Clear</text>
  
  <!-- Recent Searches -->
  <text x="40" y="526" fill="#1e3a8a" font-family="Inter, sans-serif" font-size="16" font-weight="600">Recent Searches</text>
  
  <!-- Recent Item 1 -->
  <rect x="40" y="538" width="310" height="36" rx="6" fill="white" stroke="#e5e7eb" stroke-width="1"/>
  <circle cx="60" cy="556" r="6" fill="#9ca3af"/>
  <path d="M57 553 L57 559 L63 556 Z" fill="white"/>
  <text x="76" y="561" fill="#1e3a8a" font-family="Inter, sans-serif" font-size="14">holy spirit</text>
  <text x="310" y="561" fill="#9ca3af" font-family="Inter, sans-serif" font-size="12">×</text>
  
  <!-- Recent Item 2 -->
  <rect x="40" y="582" width="310" height="36" rx="6" fill="white" stroke="#e5e7eb" stroke-width="1"/>
  <circle cx="60" cy="600" r="6" fill="#9ca3af"/>
  <path d="M57 597 L57 603 L63 600 Z" fill="white"/>
  <text x="76" y="605" fill="#1e3a8a" font-family="Inter, sans-serif" font-size="14">christmas</text>
  <text x="310" y="605" fill="#9ca3af" font-family="Inter, sans-serif" font-size="12">×</text>
  
  <!-- Recent Item 3 -->
  <rect x="40" y="626" width="310" height="36" rx="6" fill="white" stroke="#e5e7eb" stroke-width="1"/>
  <circle cx="60" cy="644" r="6" fill="#9ca3af"/>
  <path d="M57 641 L57 647 L63 644 Z" fill="white"/>
  <text x="76" y="649" fill="#1e3a8a" font-family="Inter, sans-serif" font-size="14">peace</text>
  <text x="310" y="649" fill="#9ca3af" font-family="Inter, sans-serif" font-size="12">×</text>
  
  <!-- Keyboard Shortcuts -->
  <rect x="40" y="692" width="310" height="36" rx="6" fill="#f8fafc"/>
  <text x="48" y="708" fill="#6b7280" font-family="Inter, sans-serif" font-size="12">Tip: Press</text>
  <rect x="90" y="700" width="20" height="16" rx="3" fill="white" stroke="#e5e7eb" stroke-width="1"/>
  <text x="95" y="710" fill="#6b7280" font-family="Inter, sans-serif" font-size="10">⌘</text>
  <text x="115" y="708" fill="#6b7280" font-family="Inter, sans-serif" font-size="12">+</text>
  <rect x="125" y="700" width="16" height="16" rx="3" fill="white" stroke="#e5e7eb" stroke-width="1"/>
  <text x="130" y="710" fill="#6b7280" font-family="Inter, sans-serif" font-size="10">K</text>
  <text x="145" y="708" fill="#6b7280" font-family="Inter, sans-serif" font-size="12">to open search</text>
  
  <!-- Voice Search Tip -->
  <circle cx="310" cy="708" r="12" fill="#0284c7"/>
  <circle cx="310" cy="708" r="4" fill="white"/>
  <path d="M307 705 L307 711 L313 711 L313 705 C313 703 311 701 310 701 C309 701 307 703 307 705 Z" fill="#0284c7"/>
  <rect x="309" y="713" width="2" height="2" fill="white"/>
  <text x="330" y="712" fill="#6b7280" font-family="Inter, sans-serif" font-size="12">Voice</text>
  
  <!-- Background tap area indicator -->
  <rect x="0" y="700" width="390" height="144" fill="rgba(30, 58, 138, 0.02)"/>
  <text x="195" y="780" fill="#9ca3af" font-family="Inter, sans-serif" font-size="14" text-anchor="middle">Tap anywhere to close</text>
</svg>